<?xml version="1.0" encoding="UTF-8"?>
<!DOCTYPE svg PUBLIC "-//W3C//DTD SVG 1.1//EN" "http://www.w3.org/Graphics/SVG/1.1/DTD/svg11.dtd">
<!-- Creator: CorelDRAW 2020 (64-Bit) -->
<svg xmlns="http://www.w3.org/2000/svg" xml:space="preserve" width="215.9mm" height="279.4mm" version="1.1" style="shape-rendering:geometricPrecision; text-rendering:geometricPrecision; image-rendering:optimizeQuality; fill-rule:evenodd; clip-rule:evenodd"
viewBox="0 0 21590 27940"
 xmlns:xlink="http://www.w3.org/1999/xlink"
 xmlns:xodm="http://www.corel.com/coreldraw/odm/2003">
 <defs>
  <style type="text/css">
   <![CDATA[
    .str0 {stroke:black;stroke-width:20;stroke-miterlimit:22.9256}
    .str3 {stroke:black;stroke-width:10;stroke-miterlimit:22.9256}
    .str2 {stroke:black;stroke-width:10;stroke-miterlimit:22.9256}
    .str1 {stroke:#CCCCCC;stroke-width:10;stroke-miterlimit:22.9256}
    .fil4 {fill:none}
    .fil13 {fill:black}
    .fil9 {fill:blue}
    .fil2 {fill:#111469}
    .fil1 {fill:#31CC31}
    .fil10 {fill:#33CC33}
    .fil5 {fill:#57A657}
    .fil7 {fill:#B3B3B3}
    .fil11 {fill:#CCCCCC}
    .fil3 {fill:#E6E6E6}
    .fil6 {fill:#E8EBFC}
    .fil8 {fill:red}
    .fil12 {fill:yellow}
    .fil0 {fill:white}
   ]]>
  </style>
 </defs>
 <g id="Capa_x0020_1">
  <metadata id="CorelCorpID_0Corel-Layer"/>
  <rect class="fil0 str0" x="-158.76" y="5979.57" width="21660.57" height="18767.79"/>
  <path class="fil1" d="M5338.08 15784.29c6254.82,-4050.59 4258.15,-3776.92 11228.99,-448.21 6552.21,3128.82 6364.89,2014.7 466.74,5834.27 -6618.53,4286.13 -4558.35,4482 -11758.39,1017.07 -7030.1,-3383.23 -6451.66,-2184.56 62.66,-6403.13z"/>
  <path class="fil2" d="M16298.87 9990.32c3363.68,1676.81 2912.99,918.8 1867.87,4501.39 -982.36,3367.44 -327.97,3047.26 -3499.82,1466.06 -3559.28,-1774.32 -3386.56,-887.68 -2290.72,-4593.92 1070.03,-3618.77 419.48,-3119.92 3922.67,-1373.53z"/>
  <path class="fil3" d="M16161.66 10389.39c2898.95,1445.14 2510.53,791.85 1609.81,3879.46 -846.64,2902.19 -282.66,2626.25 -3016.28,1263.51 -3067.52,-1529.17 -2918.67,-765.04 -1974.23,-3959.21 922.19,-3118.8 361.52,-2688.87 3380.7,-1183.76z"/>
  <path class="fil0 str0" d="M16911.36 12381c-141.1,382.53 84.68,422.59 -1463.16,-398.87 -1454.9,-772.13 -1231.62,-587.04 -1098.57,-947.74 149.3,-404.76 -168.46,-522.19 1435.03,330.54 1565.65,832.61 1273.66,617.69 1126.7,1016.07z"/>
  <line class="fil4 str0" x1="16358.55" y1="11837.32" x2="16127.27" y2= "12516.99" />
  <ellipse class="fil5" transform="matrix(0.101361 0.93642 -1.1864 0.601863 14191.5 22279.5)" rx="423.33" ry="1023.05"/>
  <ellipse class="fil6" transform="matrix(0.101361 0.93642 -1.1864 0.601863 14061.5 22098.1)" rx="423.33" ry="1023.05"/>
  <line class="fil4 str0" x1="14213.02" y1="21608.4" x2="14685.04" y2= "22148.16" />
  <line class="fil4 str0" x1="15239.49" y1="21412.79" x2="14318.01" y2= "21700.48" />
  <ellipse class="fil7" transform="matrix(1.02759 0.495124 -1.10582 1.41463 14169.8 17157.9)" rx="2328.33" ry="246.94"/>
  <ellipse class="fil4 str0" cx="16532.72" cy="12130.19" rx="99.82" ry="124.76"/>
  <line class="fil4 str0" x1="16559.45" y1="12195.54" x2="16671.73" y2= "12470.01" />
  <path class="fil0" d="M16094.6 14858.05c-226.01,686.86 -71.72,625.13 -955.56,178.57 -830.75,-419.75 -724.44,-249.4 -511.32,-897.08 239.15,-726.79 41.43,-737 956.48,-271.62 893.46,454.41 745.79,274.8 510.4,990.13z"/>
  <path class="fil0" d="M14739.8 12953.47c-226.01,686.85 -71.73,625.12 -955.56,178.56 -830.76,-419.74 -724.44,-249.39 -511.32,-897.07 239.15,-726.79 41.42,-737.01 956.47,-271.63 893.46,454.41 745.79,274.8 510.41,990.14z"/>
  <ellipse class="fil8" cx="13560.38" cy="11848.29" rx="49.89" ry="74.85"/>
  <ellipse class="fil9" cx="13714.66" cy="11930.4" rx="49.89" ry="74.85"/>
  <ellipse class="fil10" cx="13864.37" cy="12017.74" rx="49.89" ry="74.85"/>
  <line class="fil4 str0" x1="13309.2" y1="11855.54" x2="14051.54" y2= "12264.14" />
  <ellipse class="fil8" cx="15001.31" cy="13757.15" rx="49.89" ry="74.85"/>
  <ellipse class="fil9" cx="15155.59" cy="13839.26" rx="49.89" ry="74.85"/>
  <ellipse class="fil10" cx="15305.3" cy="13926.6" rx="49.89" ry="74.85"/>
  <line class="fil4 str0" x1="14669.03" y1="13751.92" x2="15495.58" y2= "14179.25" />
  <ellipse class="fil11" transform="matrix(0.992644 0.478286 -1.06822 1.36652 14087.9 17198.9)" rx="2328.33" ry="246.94"/>
  <path class="fil5" d="M13076.35 15364.44c1620.05,726.39 3240.08,1452.94 4860.13,2179.34 510.7,228.99 1061.74,347.24 582.27,600.2 -513.66,270.99 -761.91,29.84 -1307.27,-214.68 -1548.09,-694.12 -3096.17,-1388.39 -4644.26,-2082.54 -486.28,-218.06 -930.19,-373.22 -473.28,-614.24 349.34,-184.29 636.27,-23.27 982.41,131.92z"/>
  <path class="fil6" d="M4536.91 17588.17c2311.62,-1209.91 1285.46,-1294.99 6079.47,982.88 4506.11,2141.08 4087.54,1606.11 1907.73,2747 -2446.03,1280.27 -1251.99,1589.18 -6211.21,-775.97 -4842.17,-2309.36 -4183.53,-1693.84 -1775.99,-2953.91z"/>
  <path class="fil11 str1" d="M5210.29 18661.14c1620.03,726.43 3240.1,1452.9 4860.13,2179.34 510.72,228.94 687.47,167.59 207.98,420.53 -513.66,271.01 -387.6,209.48 -932.98,-35.01 -1548.09,-694.17 -3096.18,-1388.39 -4644.26,-2082.54 -486.31,-218.06 -585.85,-148.62 -128.96,-389.68 349.39,-184.25 291.93,-247.81 638.09,-92.64z"/>
  <rect class="fil11 str1" transform="matrix(2.12825 1.02557 -3.00556 2.87053 11745.4 19691.3)" width="246.94" height="88.2"/>
  <rect class="fil0 str2" transform="matrix(2.12825 1.02557 -3.00556 2.87053 11723.3 19511)" width="246.94" height="88.2"/>
  <rect class="fil11 str1" transform="matrix(2.12825 1.02557 -3.00556 2.87053 11024 19328.7)" width="246.94" height="88.2"/>
  <rect class="fil0 str2" transform="matrix(2.12825 1.02557 -3.00556 2.87053 11024 18883)" width="246.94" height="88.2"/>
  <rect class="fil4 str1" transform="matrix(2.17212 1.06563 -6.59147 5.74378 11141.9 20207.5)" width="246.94" height="88.2"/>
  <rect class="fil0 str2" transform="matrix(2.17212 1.06563 -6.59147 5.74378 11134.2 20192.3)" width="246.94" height="88.2"/>
  <rect class="fil11 str1" transform="matrix(2.12825 1.02557 -3.00556 2.87053 10220.3 20162.6)" width="246.94" height="88.2"/>
  <rect class="fil0 str2" transform="matrix(2.12825 1.02557 -3.00556 2.87053 10220.3 20092.9)" width="246.94" height="88.2"/>
  <rect class="fil11 str1" transform="matrix(4.02462 1.96429 -2.86341 3.05638 10209.8 19544.8)" width="246.94" height="88.2"/>
  <rect class="fil0 str2" transform="matrix(4.02462 1.96429 -2.86341 3.05638 10238.3 19398.7)" width="246.94" height="88.2"/>
  <rect class="fil11 str1" transform="matrix(2.12825 1.02557 -3.00556 2.87053 10279.8 18977.7)" width="246.94" height="88.2"/>
  <rect class="fil0 str2" transform="matrix(2.12825 1.02557 -3.00556 2.87053 10279.8 18310.9)" width="246.94" height="88.2"/>
  <rect class="fil11 str1" transform="matrix(2.12825 1.02557 -3.00556 2.87053 9519.12 18636.4)" width="246.94" height="88.2"/>
  <rect class="fil0 str2" transform="matrix(2.12825 1.02557 -3.00556 2.87053 9519.12 17682)" width="246.94" height="88.2"/>
  <rect class="fil11 str1" transform="matrix(2.12825 1.02557 -3.00556 2.87053 8810.64 18304.6)" width="246.94" height="88.2"/>
  <rect class="fil0 str2" transform="matrix(2.12825 1.02557 -3.00556 2.87053 8810.64 16908)" width="246.94" height="88.2"/>
  <rect class="fil11 str1" transform="matrix(2.12825 1.02557 -3.00556 2.87053 8088.95 17958.3)" width="246.94" height="88.2"/>
  <rect class="fil0 str2" transform="matrix(2.12825 1.02557 -3.00556 2.87053 8088.95 16252)" width="246.94" height="88.2"/>
  <rect class="fil11 str1" transform="matrix(2.12825 1.02557 -3.00556 2.87053 7308.75 17592.7)" width="246.94" height="88.2"/>
  <rect class="fil0 str2" transform="matrix(2.12825 1.02557 -3.00556 2.87053 7308.75 15532.6)" width="246.94" height="88.2"/>
  <rect class="fil11 str1" transform="matrix(2.12825 1.02557 -3.00556 2.87053 6616.32 17275.7)" width="246.94" height="88.2"/>
  <rect class="fil0 str2" transform="matrix(2.12825 1.02557 -3.00556 2.87053 6616.32 14861.6)" width="246.94" height="88.2"/>
  <rect class="fil11 str1" transform="matrix(2.12825 1.02557 -3.00556 2.87053 9571.33 19299.4)" width="246.94" height="88.2"/>
  <rect class="fil0 str2" transform="matrix(2.12825 1.02557 -3.00556 2.87053 9571.33 18920.1)" width="246.94" height="88.2"/>
  <rect class="fil11 str1" transform="matrix(2.12825 1.02557 -3.00556 2.87053 8810.64 18948.3)" width="246.94" height="88.2"/>
  <rect class="fil0 str2" transform="matrix(2.12825 1.02557 -3.00556 2.87053 8810.64 18193)" width="246.94" height="88.2"/>
  <rect class="fil11 str1" transform="matrix(2.12825 1.02557 -3.00556 2.87053 8059.69 18577.7)" width="246.94" height="88.2"/>
  <rect class="fil0 str2" transform="matrix(2.12825 1.02557 -3.00556 2.87053 8059.69 17645.5)" width="246.94" height="88.2"/>
  <rect class="fil11 str1" transform="matrix(2.12825 1.02557 -3.00556 2.87053 7318.5 18226.6)" width="246.94" height="88.2"/>
  <rect class="fil0 str2" transform="matrix(2.12825 1.02557 -3.00556 2.87053 7318.5 16918.4)" width="246.94" height="88.2"/>
  <rect class="fil11 str1" transform="matrix(2.12825 1.02557 -3.00556 2.87053 6626.08 17860.8)" width="246.94" height="88.2"/>
  <rect class="fil0 str2" transform="matrix(2.12825 1.02557 -3.00556 2.87053 6626.08 16353.5)" width="246.94" height="88.2"/>
  <rect class="fil11 str1" transform="matrix(2.12825 1.02557 -3.00556 2.87053 5981.67 17536)" width="246.94" height="88.2"/>
  <rect class="fil0 str2" transform="matrix(2.12825 1.02557 -3.00556 2.87053 5981.67 15630.6)" width="246.94" height="88.2"/>
  <rect class="fil11 str1" transform="matrix(2.12825 1.02557 -3.00556 2.87053 8190.49 19201.7)" width="246.94" height="88.2"/>
  <rect class="fil0 str2" transform="matrix(2.12825 1.02557 -3.00556 2.87053 8190.49 18888.7)" width="246.94" height="88.2"/>
  <rect class="fil11 str1" transform="matrix(2.12825 1.02557 -3.00556 2.87053 7439.54 18831.1)" width="246.94" height="88.2"/>
  <rect class="fil0 str2" transform="matrix(2.12825 1.02557 -3.00556 2.87053 7439.54 18385.4)" width="246.94" height="88.2"/>
  <rect class="fil11 str1" transform="matrix(2.12825 1.02557 -3.00556 2.87053 6698.35 18480)" width="246.94" height="88.2"/>
  <rect class="fil0 str2" transform="matrix(2.12825 1.02557 -3.00556 2.87053 6698.35 17569.9)" width="246.94" height="88.2"/>
  <rect class="fil11 str1" transform="matrix(2.12825 1.02557 -3.00556 2.87053 6005.93 18114.2)" width="246.94" height="88.2"/>
  <rect class="fil0 str2" transform="matrix(2.12825 1.02557 -3.00556 2.87053 6005.93 16982.9)" width="246.94" height="88.2"/>
  <rect class="fil11 str1" transform="matrix(2.12825 1.02557 -3.00556 2.87053 5361.52 17789.3)" width="246.94" height="88.2"/>
  <rect class="fil0 str2" transform="matrix(2.12825 1.02557 -3.00556 2.87053 5361.52 16459)" width="246.94" height="88.2"/>
  <rect class="fil11 str1" transform="matrix(2.12825 1.02557 -3.00556 2.87053 8908.17 19543.2)" width="246.94" height="88.2"/>
  <rect class="fil0 str2" transform="matrix(2.12825 1.02557 -3.00556 2.87053 8908.17 19362.9)" width="246.94" height="88.2"/>
  <rect class="fil11 str1" transform="matrix(2.12825 1.02557 -3.00556 2.87053 9581.09 19850.3)" width="246.94" height="88.2"/>
  <rect class="fil0 str2" transform="matrix(2.12825 1.02557 -3.00556 2.87053 9581.09 19758.5)" width="246.94" height="88.2"/>
  <path class="fil0 str3" d="M5210.29 17425.46c1696.68,1108.14 2910.07,2538.91 4587.69,3292.86 585.03,262.91 1076.91,268.53 480.42,542.69 -491.13,225.71 -546.04,150.02 -1160.73,-137.15 -1671.43,-780.86 -2868.45,-2314.3 -4416.51,-3317.81 -486.31,-315.22 -585.85,-265.69 -128.96,-415.45 349.39,-114.43 292.75,-190.68 638.09,34.86z"/>
  <g>
   <path class="fil12" d="M10598.58 13839.78c322.48,82.5 583.89,202.99 583.89,269.13 0,8.49 -4.33,15.66 -12.5,21.55l-571.39 -290.68zm-583.88 -29.61c0,-66.14 915.91,53 583.88,29.61l-466.91 -32.89 -9.18 33.15 1047.48 290.26 0 0.16 0 1219.51c17.67,16.24 27.48,31.77 27.48,46.14 0,66.15 -261.41,52.9 -583.88,-29.6 -322.48,-82.5 -583.89,-202.99 -583.89,-269.14 0,-6.35 2.13,-11.88 5.85,-16.76l-20.83 -5.77 0 -1125.76 0 -138.91z"/>
  </g>
  <path class="fil12" d="M6945.18 8505.71c153.67,156.64 248.48,371.24 248.48,608.01 0,479.57 -388.77,868.34 -868.35,868.34 -479.57,0 -868.34,-388.77 -868.34,-868.34 0,-236.76 94.8,-451.34 248.45,-607.98l0 6.14 1239.76 0 0 -6.17z"/>
  <polygon class="fil13 str0" points="6153.12,7170.41 6600.83,7170.41 6945.18,8511.88 5705.42,8511.88 "/>
  <line class="fil4 str0" x1="6377.71" y1="5849.91" x2="6376.98" y2= "7170.41" />
 </g>
</svg>
