<?xml version="1.0" encoding="UTF-8"?>
<!DOCTYPE svg PUBLIC "-//W3C//DTD SVG 1.1//EN" "http://www.w3.org/Graphics/SVG/1.1/DTD/svg11.dtd">
<!-- Creator: CorelDRAW 2020 (64-Bit) -->
<svg xmlns="http://www.w3.org/2000/svg" xml:space="preserve" width="279.4mm" height="215.9mm" version="1.1" style="shape-rendering:geometricPrecision; text-rendering:geometricPrecision; image-rendering:optimizeQuality; fill-rule:evenodd; clip-rule:evenodd"
viewBox="0 0 27940 21590"
 xmlns:xlink="http://www.w3.org/1999/xlink"
 xmlns:xodm="http://www.corel.com/coreldraw/odm/2003">
 <defs>
  <style type="text/css">
   <![CDATA[
    .str0 {stroke:#642A73;stroke-width:20;stroke-miterlimit:22.9256}
    .str1 {stroke:#642A73;stroke-width:39.69;stroke-linecap:round;stroke-linejoin:round;stroke-miterlimit:22.9256}
    .fil4 {fill:none;fill-rule:nonzero}
    .fil2 {fill:#28245E;fill-rule:nonzero}
    .fil1 {fill:#642A73;fill-rule:nonzero}
    .fil3 {fill:#FF6B00;fill-rule:nonzero}
    .fil0 {fill:white;fill-rule:nonzero}
   ]]>
  </style>
 </defs>
 <g id="Capa_x0020_1">
  <metadata id="CorelCorpID_0Corel-Layer"/>
  <path id="Oval" class="fil0 str0" d="M18766.38 14373.6c0,-684.27 -554.78,-1239.05 -1239.05,-1239.05 -684.27,0 -1239.05,554.78 -1239.05,1239.05 0,684.27 554.78,1239.06 1239.05,1239.06 684.27,0 1239.05,-554.79 1239.05,-1239.06z"/>
  <path id="Oval_0" class="fil0 str0" d="M25455.79 14383.71c0,-684.27 -554.79,-1239.05 -1239.06,-1239.05 -684.27,0 -1239.05,554.78 -1239.05,1239.05 0,684.27 554.78,1239.05 1239.05,1239.05 684.27,0 1239.06,-554.78 1239.06,-1239.05z"/>
  <polygon id="Shape" class="fil0 str0" points="27260.12,7217.06 16738.53,7200.04 18136.75,11749.89 25821.33,11844.7 "/>
  <path id="Shape_1" class="fil1 str1" d="M17980.91 5483.74l0 988.53 2444.2 0c-28.92,-117.33 -42.48,-237.98 -40.56,-358.89 -27.13,-586.52 270.48,-1140.54 774.47,-1441.86 503.86,-301.44 1132.73,-301.44 1636.59,0 503.99,301.32 801.6,855.34 774.47,1441.86 -0.64,120.91 -15.35,241.43 -44.01,358.89l2447.65 0 0 -846.38 -1015.65 -84.57c-67.82,-359.15 -199.73,-703.21 -389.35,-1015.66l677.1 -785.35 -785.35 -788.8 -778.69 643.2c-308.48,-208.68 -652.79,-358.9 -1015.53,-443.47l-81.24 -1015.53 -1093.45 0 -84.7 1015.53c-359.16,67.81 -703.08,199.73 -1015.53,389.35l-771.91 -697.32 -812.48 792.13 646.65 765c-206.76,303.49 -357.1,641.79 -443.47,998.77l-1029.21 84.57z"/>
  <path id="Shape_2" class="fil2 str0" d="M17632.25 15974.75c-649.34,0 -1234.58,-391.27 -1482.8,-991.35 -248.09,-599.95 -110.29,-1290.48 349.43,-1749.05 459.59,-458.7 1150.26,-595.09 1749.82,-345.72 599.44,249.5 989.56,835.63 988.15,1484.97 0,425.18 -169.15,833.07 -470.08,1133.37 -301.07,300.42 -709.22,468.68 -1134.52,467.78zm0 -2654.04c-426.07,-1.4 -811.07,254.24 -975.1,647.55 -164.03,393.32 -74.72,846.76 226.09,1148.6 300.8,301.7 753.87,392.41 1147.82,229.66 393.83,-162.75 650.62,-546.85 650.62,-972.92 0.9,-278.41 -108.76,-545.7 -304.9,-743.12 -196.27,-197.43 -462.79,-308.87 -741.08,-309.77l-3.45 0z"/>
  <path id="Shape_3" class="fil3 str0" d="M17635.7 14871.19c-203.31,1.41 -387.3,-120.14 -465.6,-307.71 -78.43,-187.57 -35.83,-403.81 107.86,-547.62 143.81,-143.69 360.05,-186.29 547.62,-107.86 187.57,78.3 309.12,262.29 307.71,465.6 0,274.84 -222.75,497.59 -497.59,497.59l0 0z"/>
  <path id="Shape_4" class="fil1 str0" d="M24213.28 15984.99c-650.24,0 -1236.11,-392.55 -1483.69,-993.78 -247.58,-601.23 -107.74,-1292.54 353.9,-1750.34 461.77,-457.8 1154.23,-591.76 1753.28,-339.06 599.18,252.57 986.61,841.77 981.11,1492.01 -7.42,880.92 -723.68,1591.17 -1604.6,1591.17l0 0zm0 -2654.17c-580.12,0.13 -1050.84,469.45 -1052.76,1049.56 -1.79,580.12 465.99,1052.38 1046.1,1056.09 580.12,3.71 1053.92,-462.53 1059.55,-1042.65 1.79,-280.08 -107.74,-549.41 -304.65,-748.76 -196.78,-199.34 -464.71,-312.45 -744.79,-314.24l-3.45 0z"/>
  <path id="Shape_5" class="fil0 str0" d="M24213.28 14881.3c-203.82,0 -387.3,-123.6 -464.07,-312.45 -76.64,-188.98 -31.22,-405.47 114.9,-547.62 146.11,-142.15 363.75,-181.68 550.56,-99.8 186.68,81.89 305.16,268.69 299.65,472.39 -5.5,272.27 -228.77,489.4 -501.04,487.48l0 0z"/>
  <polygon id="Rectangle-path" class="fil2 str0" points="22887.82,14656.83 22888.69,14104.99 19151.32,14099.12 19150.45,14650.96 "/>
  <polygon id="Shape_6" class="fil1 str0" points="18112.95,13090.53 17584.91,12924.59 17943.67,11770.23 15946.4,5751.15 14304.56,5277.23 14456.82,4749.19 16240.94,5260.34 16423.77,5439.73 18495.52,11682.21 18498.97,11851.48 "/>
  <path id="Shape_7" class="fil1 str0" d="M25712.96 12054.66l-7471.29 0 -264.09 -192.94 -1442.11 -4624.44 263.96 -358.77 10541.93 0 263.96 338.55 -1215.25 4204.51c-23.29,356.6 -319.62,633.86 -677.11,633.09l0 0zm-7275.02 -561.95l7268.24 0c74.47,0 149.06,-37.23 149.06,-125.26l0 -74.46 1106.88 -3855.99 -9800.34 -16.89 1276.16 4072.6z"/>
  <polygon id="Rectangle-path_8" class="fil1 str0" points="25526.68,8973.19 25527.55,8421.35 18682.44,8410.6 18681.57,8962.44 "/>
  <polygon id="Rectangle-path_9" class="fil1 str0" points="25073.04,10457.49 25073.91,9905.65 19156.42,9896.36 19155.56,10448.2 "/>
  <path id="Shape_10" class="fil0 str0" d="M13620.68 13212.34l0 -7616.9c0,-186.93 -151.49,-338.55 -338.55,-338.55l-12312.36 -37.23c-97.5,0 -190.9,39.66 -258.58,109.9 -67.69,70.25 -103.9,165.06 -100.19,262.55l0 7616.91 13009.68 3.32z"/>
  <path id="Shape_11" class="fil1 str0" d="M13898.33 13489.99l-13575.08 -20.34 0 -7877.54c-3.71,-172.6 63.2,-339.32 185.27,-461.38 122.06,-122.06 288.65,-188.98 461.25,-185.27l12309.03 16.89c346.23,3.71 625.92,283.53 629.63,629.76l-10.1 7897.88zm-13023.37 -572.06l12471.52 20.22 10.11 -7346.04c0,-21.62 -8.57,-42.22 -23.8,-57.45 -15.22,-15.22 -35.82,-23.79 -57.44,-23.79l-12305.58 0c-44.78,0 -81.25,36.33 -81.25,81.24l-13.56 7325.82z"/>
  <polygon id="Rectangle-path_12" class="fil0 str0" points="12590.65,12169.58 12599.91,6272.44 1628.21,6255.21 1618.95,12152.35 "/>
  <path id="Shape_13" class="fil0 str0" d="M600.77 13185.34l0 1100.23c14.71,231.46 192.82,419.55 423.25,446.8l12261.56 0c210.99,-24.69 362.35,-215.34 338.55,-426.58l0 -1117.12 -13023.36 -3.33z"/>
  <path id="Shape_14" class="fil1 str0" d="M13285.58 15026.91l-12261.56 -20.35c-384.36,-24.18 -687.59,-336.12 -700.77,-720.99l0 -1374.42 13575.08 20.22 0 1391.44c15.99,360.43 -253.47,670.19 -612.75,704.1zm-12410.62 -1564.05l0 822.71c14.84,79.46 72.04,144.46 149.06,169.28l12264.89 20.22c16.89,0 57.57,-67.69 57.57,-152.26l0 -839.6 -12471.52 -20.35z"/>
  <g>
   <path id="Shape_15" class="fil0" d="M5661.9 14732.37c-23.8,274.19 23.67,880.16 -33.91,1178.15 -57.58,297.86 -91.35,280.97 -236.96,358.77 -81.25,47.47 -216.62,108.37 -338.55,159.17l0 0 609.42 -1696.09zm0 0l0 0 0 0z"/>
   <path id="1" class="fil4 str0" d="M5661.9 14732.37c-23.8,274.19 23.67,880.16 -33.91,1178.15 -57.58,297.86 -91.35,280.97 -236.96,358.77 -81.25,47.47 -216.62,108.37 -338.55,159.17l0 0m609.42 -1696.09l0 0 0 0z"/>
  </g>
  <path id="Shape_16" class="fil1 str0" d="M5167.63 16692.54l-220.07 -504.5c138.83,-60.9 250.52,-115.03 311.43,-145.48l20.34 0 44.02 -27.12c15.48,-44.02 26.74,-89.31 33.77,-135.37 26.11,-224.81 34.04,-451.15 23.8,-677.11l0 -463.81 548.39 47.47 0 409.56c12.54,266.78 1.15,534.19 -33.91,798.91 -67.68,338.56 -145.6,423.13 -338.55,538.28l-16.89 0c-111.7,44.02 -264.08,111.7 -372.33,159.17z"/>
  <g>
   <path id="Shape_17" class="fil0" d="M9145.3 16448.8c-115.03,-50.8 -253.85,-115.15 -338.56,-159.17 -142.15,-81.25 -169.27,-88.03 -223.39,-362.22 -54.13,-274.19 0,-886.94 -30.46,-1161.13l592.41 1682.52zm0 0l0 0 0 0z"/>
   <path id="1" class="fil4 str0" d="M9145.3 16448.8c-115.03,-50.8 -253.85,-115.15 -338.56,-159.17 -142.15,-81.25 -169.27,-88.03 -223.39,-362.22 -54.13,-274.19 0,-886.94 -30.46,-1161.13m592.41 1682.52l0 0 0 0z"/>
  </g>
  <path id="Shape_18" class="fil1 str0" d="M9033.6 16702.65c-111.7,-50.8 -264.09,-118.48 -358.9,-172.6l0 0c-223.4,-125.27 -287.63,-220.08 -338.42,-541.74 -34.93,-261.4 -46.32,-525.35 -33.91,-788.8 7.17,-135.24 7.17,-270.87 0,-406.24l524.72 -60.9 0 457.03c-10.62,225.96 -2.69,452.43 23.67,677.11 8.57,47.98 19.83,95.44 33.9,142.15l44.02 23.67c67.68,37.23 182.84,91.48 338.55,152.38l-233.63 517.94z"/>
  <g>
   <path id="Shape_19" class="fil0" d="M4700.37 16418.22l4817.38 6.78 -4817.38 -6.78zm0 0l0 0 0 0z"/>
   <path id="1" class="fil4 str0" d="M4700.37 16418.22l4817.38 6.78m-4817.38 -6.78l0 0 0 0z"/>
  </g>
  <polygon id="Rectangle-path_20" class="fil1 str0" points="9514.4,16702.14 9515.27,16150.29 4698.01,16142.73 4697.15,16694.57 "/>
  <path id="Shape_21" class="fil0 str0" d="M5739.69 8503.45l2748.85 0c8.57,-288.65 92.63,-569.88 243.74,-815.92 614.66,-752.21 991.73,-1670.12 1083.34,-2637.15 109.78,-1030.5 -378.22,-2033.23 -1256.84,-2582.9 -878.62,-549.54 -1993.82,-549.54 -2872.44,0 -878.63,549.67 -1366.49,1552.4 -1256.71,2582.9 88.02,967.8 462.79,1887.11 1076.43,2640.6 148.93,245.15 229.66,525.61 233.63,812.47z"/>
  <path id="Shape_22" class="fil1 str0" d="M8749.3 8784.43l-3263.46 0 -17.02 -257.31c-0.38,-237.85 -63.46,-471.36 -182.71,-677.1 -646.52,-801.21 -1039.07,-1777.2 -1127.35,-2802.97 0,-1639.66 1329.26,-2968.91 2968.92,-2968.91 1639.66,0 2968.91,1329.25 2968.91,2968.91 -93.02,1028.58 -491.58,2005.98 -1144.24,2806.43 -119.38,205.74 -182.33,439.24 -182.84,677.1l-20.21 253.85zm-2755.76 -558.62l2254.71 0c31.73,-252.7 123.47,-494.01 267.41,-704.11 573.47,-706.4 926.6,-1565.83 1015.53,-2471.32 -129.74,-1229.2 -1166,-2162.46 -2401.98,-2163.23 -1235.98,-0.89 -2273.64,930.83 -2405.05,2159.9 89.57,905.37 442.58,1764.54 1015.53,2471.2 140.1,212.14 227.11,454.86 253.85,707.56l0 0z"/>
  <polygon id="Rectangle-path_23" class="fil1 str0" points="6289.99,8532.42 6836.59,8456.57 6425.73,5495.68 5879.13,5571.53 "/>
  <polygon id="Rectangle-path_24" class="fil1 str0" points="7953.6,8536.56 8373.24,5576.9 7826.86,5499.43 7407.22,8459.09 "/>
  <polygon id="Shape_25" class="fil1 str0" points="7943.48,6177.73 7584.71,6177.73 7445.88,6055.8 7303.73,6174.41 6944.84,6174.41 6802.69,6055.8 6663.86,6174.41 6305.1,6174.41 5983.43,5896.76 6345.65,5480.41 6484.48,5602.22 6623.3,5480.41 6985.53,5480.41 7124.35,5602.22 7263.05,5480.41 7625.27,5483.74 7764.09,5602.22 7906.24,5483.74 8265.14,5900.09 "/>
  <polygon id="Rectangle-path_26" class="fil1 str0" points="8674.8,8814.2 8675.66,8262.36 5564.6,8257.48 5563.73,8809.32 "/>
  <polygon id="Rectangle-path_27" class="fil1 str0" points="8674.79,9634.73 8675.66,9082.89 5564.6,9078 5563.73,9629.84 "/>
  <polygon id="Rectangle-path_28" class="fil1 str0" points="8136.45,10451.03 8137.32,9899.18 6102.81,9895.99 6101.94,10447.83 "/>
  <polygon id="Rectangle-path_29" class="fil1 str0" points="6605.04,9286.81 6606.16,8572.47 6054.32,8571.61 6053.19,9285.94 "/>
  <g>
   <path id="Shape_30" class="fil0" d="M10076.25 18456.18l0 -7224.22c-1.92,-106.84 40.17,-209.71 116.3,-284.56 76.26,-74.98 179.77,-115.28 286.61,-111.45l10609.49 0c215.08,0 389.35,174.27 389.35,389.22l0 487.49 -213.29 6699.51 -10887.14 179.51 -301.32 -135.5zm0 0l0 0 0 0z"/>
   <path id="1" class="fil4 str0" d="M10076.25 18456.18l0 -7224.22c-1.92,-106.84 40.17,-209.71 116.3,-284.56 76.26,-74.98 179.77,-115.28 286.61,-111.45l10609.49 0c215.08,0 389.35,174.27 389.35,389.22l0 487.49 -213.29 6699.51 -10887.14 179.51m-301.32 -135.5l0 0 0 0z"/>
  </g>
  <path id="Shape_31" class="fil1 str0" d="M10353.9 18456.18l-551.84 0 0 -7224.22c0,-373.87 303.11,-676.98 677.1,-676.98l10609.49 0c373.99,0 677.1,303.11 677.1,676.98l0 1479.46 -565.4 0 0 -1472.68c0,-61.67 -50.03,-111.7 -111.7,-111.7l-10609.49 -16.89c-61.67,0 -111.7,50.03 -111.7,111.7l-13.56 7234.33z"/>
  <polygon id="Rectangle-path_32" class="fil0 str0" points="20641.04,17623.99 20650.38,11679.38 10917.6,11664.09 10908.27,17608.7 "/>
  <g>
   <path id="Shape_33" class="fil0" d="M23163.84 18429.19l-14783.55 -23.8 0 700.77c257.95,199.34 561.7,330.75 883.49,382.57l4705.56 0 3602 0 4702.24 0 890.26 -1059.54zm0 0l0 0 0 0z"/>
   <path id="1" class="fil4 str0" d="M23163.84 18429.19l-14783.55 -23.8 0 700.77c257.95,199.34 561.7,330.75 883.49,382.57l4705.56 0 3602 0 4702.24 0m890.26 -1059.54l0 0 0 0z"/>
  </g>
  <path id="Shape_34" class="fil1 str0" d="M22273.58 19783.26l-13009.8 -20.34c-382.57,-49 -744.92,-199.85 -1049.44,-436.69l-104.92 -81.24 0 -1127.23 15057.88 23.67 0 551.71 -14509.49 -23.67 0 277.65c180.67,130.25 389.35,216.11 609.42,250.52l13013.13 20.22 -6.78 565.4z"/>
  <polygon id="Rectangle-path_35" class="fil0 str0" points="19784.62,19556.48 23613.34,19562.49 23614.59,18770.36 19785.86,18764.35 "/>
  <polygon id="Rectangle-path_36" class="fil0 str0" points="23497.97,13086.33 23499.53,12091.02 20009.23,12085.54 20007.67,13080.85 "/>
  <path id="Shape_37" class="fil1 str0" d="M23434.71 19976.21l-3385.39 0c-281.48,1.92 -512.3,-222.89 -517.93,-504.37l0 -6374.52 561.95 0 0 6337.29 3317.7 0 0 -7000.83 -3317.7 0 0 944.51 -555.17 0 0 -995.31c-0.9,-137.67 53.35,-269.84 150.72,-367.21 97.37,-97.37 229.67,-151.62 367.21,-150.73l3385.39 0c286.61,1.92 517.94,234.79 517.94,521.39l-6.78 7085.41c-5.5,281.48 -236.32,506.29 -517.94,504.37z"/>
  <polygon id="Rectangle-path_38" class="fil0 str0" points="23400,18331.95 23407.77,13385.98 20090.2,13380.76 20082.43,18326.73 "/>
  <polygon id="Rectangle-path_39" class="fil1 str0" points="23616.73,18888.34 23617.6,18336.5 19873.45,18330.62 19872.58,18882.46 "/>
  <polygon id="Rectangle-path_40" class="fil1 str0" points="23623.52,13388.74 23624.39,12836.9 19880.24,12831.01 19879.37,13382.86 "/>
 </g>
</svg>
