<?xml version="1.0" encoding="UTF-8"?>
<!DOCTYPE svg PUBLIC "-//W3C//DTD SVG 1.1//EN" "http://www.w3.org/Graphics/SVG/1.1/DTD/svg11.dtd">
<!-- Creator: CorelDRAW 2020 (64-Bit) -->
<svg xmlns="http://www.w3.org/2000/svg" xml:space="preserve" width="279.4mm" height="215.9mm" version="1.1" style="shape-rendering:geometricPrecision; text-rendering:geometricPrecision; image-rendering:optimizeQuality; fill-rule:evenodd; clip-rule:evenodd"
viewBox="0 0 27940 21590"
 xmlns:xlink="http://www.w3.org/1999/xlink"
 xmlns:xodm="http://www.corel.com/coreldraw/odm/2003">
 <defs>
  <style type="text/css">
   <![CDATA[
    .fil2 {fill:#28245E;fill-rule:nonzero}
    .fil1 {fill:#642A73;fill-rule:nonzero}
    .fil0 {fill:white;fill-rule:nonzero}
   ]]>
  </style>
 </defs>
 <g id="Capa_x0020_1">
  <metadata id="CorelCorpID_0Corel-Layer"/>
  <path id="Shape" class="fil0" d="M2328.62 9534.01l-273.8 1369.01 3285.41 -273.8 3833 273.8 0 -591.38c0,43.78 -547.6,-777.63 -547.6,-777.63l-6297.01 0z"/>
  <path id="Shape_0" class="fil0" d="M20518.8 9684.68l0 -6792.67c-1.56,-175.81 -144.46,-317.57 -320.37,-317.57l-10986.91 0c-175.39,0 -317.57,142.18 -317.57,317.57l0 6792.67 11624.85 0z"/>
  <path id="Shape_1" class="fil1" d="M20762.48 9931.06l-12098.56 0 0 -7039.05c-0.11,-305.15 242.55,-555.05 547.6,-563.95l10986.91 0c311.47,0 564.05,252.48 564.05,563.95l0 7039.05zm-11611.18 -484.59l11121.12 0 0 -6554.46c-1.56,-39.73 -34.15,-71.19 -73.99,-71.09l-10986.91 0c-39.32,0 -71.19,31.87 -71.19,71.09l10.97 6554.46z"/>
  <path id="Shape_2" class="fil0" d="M8904.92 9679.19l0 980.14c14.48,206.75 174.56,373.76 380.48,396.94l10934.97 0c188.95,0 301.12,-194.33 301.12,-383.28l0 -993.8 -11616.57 0z"/>
  <path id="Shape_3" class="fil1" d="M20220.37 11302.65l-10934.97 0c-340.75,-24.84 -608.44,-301.85 -621.48,-643.32l0 -1212.86 12104.05 0 0 1240.18c15.62,320.26 -227.75,594.06 -547.6,616zm-11069.07 -1368.9l0 733.75c14.79,70.47 65.81,127.8 134.1,150.56l10934.97 0c16.45,0 54.74,-60.22 54.74,-136.9l0 -755.59 -11123.81 8.18z"/>
  <g>
   <path id="Shape_4" class="fil0" d="M13422.32 11061.75c-21.94,243.69 21.94,785.81 -30.11,1051.33 -52.05,265.63 -82.16,249.17 -210.78,320.37 -71.2,41.08 -194.44,95.82 -295.74,139.59l0 0 536.63 -1511.29zm0 0l0 0 0 0z"/>
  </g>
  <path id="Shape_5" class="fil1" d="M12981.51 12800.27l-194.33 -451.67c123.14,-54.85 224.44,-101.31 273.7,-128.73l16.45 0 41.08 -21.94c12.42,-40.35 22.56,-81.54 30.11,-123.14 22.77,-201.78 29.18,-405.01 19.14,-607.82l0 -413.39 490.07 41.08 0 364.13c12.11,237.69 2.07,476 -30.11,711.82 -8.28,201.99 -127.17,383.08 -309.4,470.93l-16.35 0c-87.64,54.74 -221.75,114.96 -320.36,158.73z"/>
  <g>
   <path id="Shape_6" class="fil0" d="M16529.75 12575.83c-104,-43.87 -227.24,-101.3 -301.12,-142.38 -128.73,-71.2 -153.36,-79.47 -202.61,-320.37 -49.36,-240.89 0,-793.98 -27.42,-1037.67l531.15 1500.42zm0 0l0 0 0 0z"/>
  </g>
  <path id="Shape_7" class="fil2" d="M16431.23 12800.27c-98.61,-41.08 -235.51,-103.99 -320.36,-150.56l0 0c-202.61,-112.27 -257.35,-197.12 -314.88,-484.58 -30.74,-233.24 -40.77,-468.65 -30.11,-703.65l0 -358.65 490.06 -41.08c7.25,135.87 7.25,272.04 0,407.91 -9.21,200.12 -1.86,400.77 21.94,599.65 6.83,43.56 16.87,86.61 30.11,128.62l38.29 21.94c63.02,32.91 164.32,82.16 290.25,136.9l-205.3 443.5z"/>
  <g>
   <path id="Shape_8" class="fil0" d="M12565.32 12553.89l4295.76 0 -4295.76 0zm0 0l0 0 0 0z"/>
  </g>
  <rect id="Rectangle-path" class="fil1" x="12565.39" y="12307.52" width="4295.65" height="492.76"/>
  <path id="Shape_9" class="fil1" d="M14873.38 8154.14l-320.36 0c-793.98,0 -1270.39,-383.28 -1270.39,-1023.91l0 -2165.67c1.55,-700.44 569.85,-1267.6 1270.39,-1267.6l320.36 0c700.55,1.55 1267.6,569.85 1267.6,1270.39l0 2165.58c0,637.93 -473.61,1021.21 -1267.6,1021.21zm-320.36 -3967.11c-429.43,0 -777.53,348.1 -777.53,777.53l0 2165.67c0,350.48 273.8,531.15 777.53,531.15l320.36 0c514.7,0 774.74,-180.67 774.74,-531.15l0 -2165.67c0,-428.29 -346.44,-775.98 -774.74,-777.53l-320.36 0z"/>
  <rect id="Rectangle-path_10" class="fil0" x="12896.67" y="5399.89" width="3630.4" height="2913.09"/>
  <path id="Shape_11" class="fil1" d="M16283.37 5646.37l0 2431.2 -3140.33 0 0 -2431.2 3140.33 0 0 0zm490.06 -492.86l-4123.15 0 0 3405.85 4123.15 0 0 -3405.85 0 0z"/>
  <path id="Shape_12" class="fil1" d="M14711.86 6161.07c-78.13,-3 -154.08,25.97 -210.48,80.19 -56.29,54.22 -88.06,129.04 -87.95,207.27 0.1,101.61 52.98,195.88 139.59,249.17l-65.71 711.82 427.15 0 -52.04 -700.96c85.78,-53.91 138.45,-147.76 139.59,-249.07 3,-78.64 -26.29,-155 -81.13,-211.4 -54.84,-56.39 -130.38,-87.85 -209.02,-87.02z"/>
  <rect id="Rectangle-path_13" class="fil2" transform="matrix(10.0764 -2.35412 2.35412 10.0764 15602.8 4502.58)" width="23.81" height="47.62"/>
  <path id="Shape_14" class="fil1" d="M16450.38 4808.51l-120.45 -481.79 495.55 -115.06 112.17 479.2 -487.27 117.65zm988.31 -232.72l-112.27 -479.1 495.55 -125.93 112.27 479.1 -495.55 125.93zm991.11 -229.92l-112.28 -481.9 492.87 -114.96 112.27 479.1 -492.86 117.76zm988.41 -232.72l-112.27 -479.1 495.55 -115.07 112.27 479.2 -495.55 114.97z"/>
  <rect id="Rectangle-path_15" class="fil2" transform="matrix(10.0764 -2.35412 2.35412 10.0764 20297.7 3403.53)" width="23.81" height="47.62"/>
  <rect id="Rectangle-path_16" class="fil2" transform="matrix(2.35412 -10.0764 10.0764 2.35412 13466.7 4921.73)" width="47.62" height="23.81"/>
  <path id="Shape_17" class="fil1" d="M12976.02 4808.51l-495.55 -117.65 112.27 -479.2 495.56 115.06 -112.28 481.79zm-991.1 -232.72l-492.76 -114.96 112.27 -490.07 492.76 114.97 -112.27 490.06zm-988.31 -229.92l-495.56 -117.76 112.28 -479.1 495.55 114.96 -112.27 481.9zm-988.42 -232.72l-495.55 -114.97 112.27 -479.2 495.55 115.07 -112.27 479.1z"/>
  <rect id="Rectangle-path_18" class="fil2" transform="matrix(2.35588 -10.076 10.076 2.35588 8779.71 3827.23)" width="47.62" height="23.81"/>
  <g>
   <path id="Shape_19" class="fil0" d="M15837.07 17607.93l0 -6439.39c-1.45,-93.13 34.56,-183.05 99.85,-249.38 65.4,-66.43 154.7,-103.79 247.83,-103.79l9453.79 0c192.06,0 347.69,155.63 347.69,347.69l0 6444.87 -10149.16 0zm0 0l0 0 0 0z"/>
  </g>
  <path id="Shape_20" class="fil1" d="M26240.88 17607.93l-492.86 0 0 -6439.39c-1.45,-55.36 -45.94,-99.86 -101.3,-101.3l-9461.97 0c-55.88,0 -101.3,45.32 -101.3,101.3l0 6439.39 -492.76 0 0 -6439.39c0,-328.13 265.94,-594.06 594.06,-594.06l9453.79 0c157.6,0 308.68,62.5 420.12,173.94 111.34,111.45 173.95,262.52 173.95,420.12l8.27 6439.39z"/>
  <path id="Shape_21" class="fil0" d="M14323.09 17577.82l0 629.66c231.38,177.88 503.21,295.43 791.19,342.3l11603.01 0c287.98,-46.87 559.82,-164.42 791.19,-342.3l0 -629.66 -13185.39 0z"/>
  <path id="Shape_22" class="fil1" d="M26717.29 18787.99l-11603.01 0c-342.41,-44.19 -666.71,-179.43 -939.06,-391.56l-98.61 -73.88 0 -991.11 13675.56 0 0 991.11 -98.61 73.88c-271.22,212.23 -594.69,347.48 -936.27,391.56l0 0zm-12147.82 -717.41c162.56,116.52 350.06,193.4 547.6,224.55l11600.22 0c197.13,-32.19 384.42,-108.97 547.5,-224.55l0 -246.38 -12695.32 0 0 246.38z"/>
  <polygon id="Shape_23" class="fil0" points="24266.85,16860.52 17728.94,16860.52 17728.94,8636.04 22605,8636.04 24266.85,10311.64 "/>
  <rect id="Rectangle-path_24" class="fil1" x="23847.99" y="10714.02" width="429.84" height="6146.45"/>
  <polygon id="Shape_25" class="fil1" points="17983.5,16860.52 17550.96,16860.52 17550.96,8636.04 22309.37,8636.04 22309.37,9065.88 17983.5,9065.88 "/>
  <polygon id="Shape_26" class="fil1" points="22605,10311.64 24266.85,10311.64 22605,8649.7 "/>
  <rect id="Rectangle-path_27" class="fil1" x="19847.97" y="10678.47" width="3022.57" height="429.84"/>
  <rect id="Rectangle-path_28" class="fil1" x="19847.97" y="11352.01" width="3022.57" height="429.84"/>
  <polygon id="Shape_29" class="fil1" points="18963.74,11743.46 18490.02,11439.55 18725.53,11078.2 18867.82,11171.23 19215.6,10736.01 19552.32,11007.01 "/>
  <rect id="Rectangle-path_30" class="fil1" x="19847.97" y="12690.8" width="3022.57" height="429.84"/>
  <rect id="Rectangle-path_31" class="fil1" x="19847.97" y="13364.33" width="3022.57" height="429.84"/>
  <polygon id="Shape_32" class="fil1" points="18963.74,13755.78 18490.02,13451.87 18725.53,13087.73 18867.82,13180.86 19215.6,12748.22 19552.32,13016.54 "/>
  <rect id="Rectangle-path_33" class="fil1" x="19847.97" y="14700.32" width="3022.57" height="429.84"/>
  <rect id="Rectangle-path_34" class="fil1" x="19847.97" y="15373.86" width="3022.57" height="429.84"/>
  <polygon id="Shape_35" class="fil1" points="18963.74,15765.42 18490.02,15461.5 18725.53,15100.06 18867.82,15193.19 19215.6,14757.86 19552.32,15026.17 "/>
  <path id="Shape_36" class="fil0" d="M10725.5 15672.29l0 -1004.77 -892.5 -73.98c-59.39,-323.37 -177.15,-633.29 -347.68,-914.43l596.86 -703.55 -711.82 -711.92 -684.51 577.71c-274,-180.56 -578.12,-310.32 -897.97,-383.28l-76.68 -922.7 -1007.56 0 -73.88 895.28c-322.43,61.26 -631.31,179.95 -911.74,350.48l-706.33 -596.86 -711.82 711.82 580.4 684.51c-185.43,271.93 -319.95,575.23 -397.04,895.28l-919.92 76.68 0 1004.76 892.6 73.89c61.77,323.57 181.39,633.38 353.17,914.43l-596.86 703.64 711.82 711.82 684.5 -574.92c271.53,183.78 573.78,317.37 892.49,394.25l76.68 922.6 1007.56 0 73.88 -895.28c322.96,-61.05 631.94,-180.78 911.74,-353.17l706.34 596.86 711.82 -709.03 -580.41 -684.5c187.5,-277.73 322.13,-587.75 396.94,-914.43l919.92 -71.19z"/>
  <path id="Shape_37" class="fil1" d="M7812.51 18933.06l-1459.34 0 -82.06 -974.65c-224.65,-65.19 -440.71,-157.18 -643.42,-273.8l-717.31 607.83 -1032.18 -1032.19 632.45 -744.73c-112.07,-207.47 -197.54,-428.29 -254.66,-657.08l-939.06 -76.67 0 -1467.42 974.66 -82.16c65.29,-223.71 157.28,-438.84 273.8,-640.62l-610.52 -720.1 1032.19 -1032.19 747.41 632.45c207.79,-109.17 427.37,-194.64 654.29,-254.55l84.96 -939.16 1459.23 0 82.16 977.45c224.65,65.19 440.61,157.07 643.32,273.8l720.1 -607.83 1029.39 1029.39 -632.45 747.52c114.55,213.37 201.06,440.61 257.35,676.23l939.16 76.67 0 1459.24 -974.76 79.37c-64.67,224.85 -156.66,440.92 -273.7,643.42l610.52 720 -1032.19 1032.18 -758.38 -643.42c-207.37,109.58 -427.05,194.12 -654.29,251.97l-76.67 939.05zm-1007.56 -490.06l547.6 0 71.19 -854.21 183.36 -35.6c290.67,-57.01 568.82,-165.56 821.41,-320.36l153.35 -93.03 667.95 563.95 391.55 -388.76 -547.6 -654.39 106.79 -156.05c169.29,-249.17 290.88,-527.73 358.65,-821.29l41.08 -172.5 873.35 -73.88 0 -547.61 -854.2 -71.19 -30.12 -169.7c-55.67,-291.08 -164.21,-569.44 -320.26,-821.4l-93.13 -150.56 566.75 -668.05 -391.56 -391.56 -654.29 547.6 -153.35 -103.99c-249.69,-169.19 -527.94,-291.71 -821.3,-361.45l-153.35 -54.74 -71.2 -873.35 -547.6 0 -71.19 854.21 -183.36 35.59c-290.67,57.02 -568.82,165.46 -821.4,320.27l-153.25 93.12 -668.05 -563.95 -388.77 388.77 547.5 654.28 -106.79 156.05c-169.29,249.28 -290.87,527.73 -358.65,821.4l-40.98 172.5 -873.45 73.88 0 547.6 854.21 71.2 35.59 183.36c56.6,290.87 165.05,569.12 320.37,821.4l62.91 164.22 -547.5 659.87 391.46 391.46 654.39 -547.5 153.35 103.99c249.59,169.19 527.94,291.6 821.3,361.45l175.19 41.08 52.05 867.87z"/>
  <path id="Shape_38" class="fil0" d="M8258.7 15105.54c0,615.38 -498.86,1114.35 -1114.24,1114.35 -615.38,0 -1114.35,-498.97 -1114.35,-1114.35 0,-615.38 498.97,-1114.24 1114.35,-1114.24 614.76,1.45 1112.79,499.48 1114.24,1114.24l0 0z"/>
  <path id="Shape_39" class="fil1" d="M7144.46 16468.96c-756.01,0 -1368.9,-612.9 -1368.9,-1368.9 0,-756.01 612.89,-1368.9 1368.9,-1368.9 756,0 1368.9,612.89 1368.9,1368.9 0,756 -612.9,1368.9 -1368.9,1368.9zm0 -2231.28c-352.65,-1.14 -671.16,210.57 -806.61,536.22 -135.45,325.54 -61.15,700.64 188.23,950.02 249.38,249.38 624.48,323.68 950.02,188.23 325.64,-135.45 537.36,-453.96 536.22,-806.61 0,-479.31 -388.56,-867.86 -867.86,-867.86l0 0z"/>
  <polygon id="Shape_40" class="fil0" points="3560.62,8165.11 2739.22,8986.51 8488.73,8986.51 7393.63,8165.11 "/>
  <path id="Shape_41" class="fil0" d="M9036.33 9807.81l-821.4 273.8 821.4 1368.91 2190.2 0c0,0 -547.5,-1095.1 -1095.1,-1095.1 -298.32,14.17 -591.27,-83.41 -821.4,-273.81l-273.7 -273.8z"/>
  <path id="Shape_42" class="fil1" d="M11467.53 15691.43l-106.79 0 0 -479.1 0 0 0 0 41.08 0c531.05,-220.82 877.59,-738.93 878.84,-1314.16 3.62,-505.59 -285.6,-967.72 -741.94,-1185.44l-136.9 -71.19 -13.76 -139.69c-117.34,-1226.52 -1149.84,-2161.54 -2381.84,-2157.4l-219.06 0 -57.53 -169.71c-482.83,-1469.99 -1916.09,-2412.36 -3456.97,-2273.08 -1540.99,139.28 -2781.99,1323.47 -2993.4,2856.18l-19.14 147.87 -142.38 49.25c-985.83,369.62 -1569.24,1388.36 -1389.08,2425.72 180.15,1037.25 1072.85,1799.68 2125.63,1815.2l0 492.86c-1275.36,0 -2373.77,-899.53 -2625.12,-2149.84 -251.35,-1250.32 413.91,-2504.36 1590.14,-2997.33 304.53,-1684.4 1693.3,-2959.97 3397.47,-3120.67 1704.17,-160.7 3306.82,832.89 3920.86,2430.79 1388.04,51.94 2540.36,1089.1 2737.8,2464 560.43,322.23 902.94,922.29 895.28,1568.82 -1.03,802.05 -501.34,1518.74 -1253.93,1795.95l-49.26 10.97z"/>
  <path id="Shape_43" class="fil1" d="M3078.73 11239.73l0 -19.14c0,-661.22 262.94,-1295.43 730.76,-1762.74 467.82,-467.3 1102.24,-729.41 1763.46,-728.68l0 492.76c-1102.76,-3.01 -1999.6,887.73 -2004.15,1990.38l0 0 -490.07 27.42z"/>
  <path id="Shape_44" class="fil1" d="M1991.8 13005.68l-492.76 0c5.7,-686.16 518.32,-1262.01 1199.2,-1347.07l57.43 490.07c-435.33,50.08 -763.97,418.77 -763.87,857l0 0z"/>
 </g>
</svg>
