<?xml version="1.0" encoding="UTF-8"?>
<svg width="77px" height="65px" viewBox="0 0 77 65" version="1.1" xmlns="http://www.w3.org/2000/svg" xmlns:xlink="http://www.w3.org/1999/xlink">
    <!-- Generator: Sketch 42 (36781) - http://www.bohemiancoding.com/sketch -->
    <title>iconos-aplicaciones</title>
    <desc>Created with Sketch.</desc>
    <defs></defs>
    <g id="Page-1" stroke="none" stroke-width="1" fill="none" fill-rule="evenodd">
        <g id="Artboard" transform="translate(-219.000000, -83.000000)">
            <g id="iconos-aplicaciones" transform="translate(219.000000, 83.000000)">
                <g id="Layer_2">
                    <g>
                        <g id="Layer_1-2">
                            <path d="M49.26,21.58 L49.26,18.39 L47.36,18 C47.2666927,17.6022816 47.1464145,17.2113777 47,16.83 L48.42,15.54 L46.82,12.78 L44.82,13.41 C44.5714981,13.1448277 44.3077153,12.894401 44.03,12.66 L44.65,10.73 L41.88,9.13 L40.48,10.69 C40.1357437,10.5789818 39.7851077,10.4888182 39.43,10.42 L39,8.42 L35.85,8.42 L35.43,10.42 C35.0517663,10.4966424 34.6778997,10.5934471 34.31,10.71 L33,9.26 L30.23,10.86 L30.81,12.66 C30.49,12.94 30.18,13.24 29.89,13.55 L28.19,13 L26.6,15.76 L27.86,16.91 C27.6905555,17.3655851 27.5568185,17.8336646 27.46,18.31 L25.89,18.64 L25.89,21.84 L27.38,22.16 C27.4719843,22.693007 27.6057297,23.2179576 27.78,23.73 L26.72,24.68 L28.32,27.45 L29.64,27 C30.016982,27.4386565 30.4282808,27.8466114 30.87,28.22 L30.46,29.48 L33.23,31.07 L34.13,30.07 C34.682756,30.2635888 35.2516765,30.4074922 35.83,30.5 L36.11,31.78 L39.3,31.78 L39.59,30.4 C40.1419348,30.2790972 40.6835823,30.1152655 41.21,29.91 L42.14,30.91 L44.91,29.31 L44.43,27.82 C44.7884897,27.4663676 45.1225893,27.0888351 45.43,26.69 L46.92,27.17 L48.51,24.4 L47.21,23.23 C47.3405856,22.7907349 47.4408219,22.343013 47.51,21.89 L49.26,21.58 Z M42.81,20.43 C42.81,23.3902463 40.4102463,25.79 37.45,25.79 C34.4897537,25.79 32.09,23.3902463 32.09,20.43 C32.09,17.4697537 34.4897537,15.07 37.45,15.07 C40.4102463,15.07 42.81,17.4697537 42.81,20.43 Z" id="Shape" stroke="#28245E" stroke-width="1.5" stroke-linecap="round" stroke-linejoin="round" fill="#FFFFFF" fill-rule="nonzero"></path>
                            <rect id="Rectangle-path" fill="#FFFFFF" fill-rule="nonzero" x="13.78" y="0.75" width="18.43" height="36.29" rx="1.15"></rect>
                            <path d="M31.06,37.79 L14.93,37.79 C13.880659,37.79 13.03,36.939341 13.03,35.89 L13.03,1.9 C13.03,1.39608867 13.230178,0.912816235 13.5864971,0.556497116 C13.9428162,0.200177997 14.4260887,-9.2598997e-16 14.93,0 L31.06,0 C31.570012,-0.00801831518 32.0620431,0.188294473 32.4264579,0.545195591 C32.7908728,0.902096709 32.9973925,1.3899316 33,1.9 L33,35.9 C32.99474,36.4083281 32.7870543,36.8935876 32.4229311,37.2483261 C32.0588079,37.6030647 31.5682922,37.7980119 31.06,37.79 L31.06,37.79 Z M14.93,1.5 C14.7090861,1.5 14.53,1.6790861 14.53,1.9 L14.53,35.9 C14.53,36.1209139 14.7090861,36.3 14.93,36.3 L31.06,36.3 C31.2809139,36.3 31.46,36.1209139 31.46,35.9 L31.46,1.9 C31.46,1.6790861 31.2809139,1.5 31.06,1.5 L14.93,1.5 Z" id="Shape" fill="#28245E" fill-rule="nonzero"></path>
                            <rect id="Rectangle-path" stroke="#28245E" x="15.77" y="5.65" width="14.45" height="26.21" rx="1.16"></rect>
                            <rect id="Rectangle-path" fill="#28245E" fill-rule="nonzero" x="19.92" y="2.57" width="6.16" height="1.5"></rect>
                            <rect id="Rectangle-path" fill="#28245E" fill-rule="nonzero" x="22.25" y="33.29" width="1.5" height="1.5"></rect>
                            <rect id="Rectangle-path" fill="#28245E" fill-rule="nonzero" x="44.85" y="30.01" width="1.5" height="5.98"></rect>
                            <path d="M31.86,5.64 L33.2,5.64 L33.2,7.15 L31.86,7.15 L31.86,5.64 Z M34.54,5.64 L35.87,5.64 L35.87,7.15 L34.54,7.15 L34.54,5.64 Z M37.21,5.64 L38.55,5.64 L38.55,7.15 L37.21,7.15 L37.21,5.64 Z M39.89,5.64 L41.22,5.64 L41.22,7.15 L39.89,7.15 L39.89,5.64 Z" id="Shape" fill="#28245E" fill-rule="nonzero"></path>
                            <rect id="Rectangle-path" fill="#28245E" fill-rule="nonzero" x="42.56" y="5.64" width="1.5" height="1.5"></rect>
                            <rect id="Rectangle-path" fill="#28245E" fill-rule="nonzero" x="42.56" y="2.97" width="1.5" height="1.34"></rect>
                            <rect id="Rectangle-path" fill="#28245E" fill-rule="nonzero" x="42.56" y="0.13" width="1.5" height="1.5"></rect>
                            <path d="M31.86,0.13 L33.2,0.13 L33.2,1.63 L31.86,1.63 L31.86,0.13 Z M34.54,0.13 L35.87,0.13 L35.87,1.63 L34.54,1.63 L34.54,0.13 Z M37.21,0.13 L38.55,0.13 L38.55,1.63 L37.21,1.63 L37.21,0.13 Z M39.89,0.13 L41.22,0.13 L41.22,1.63 L39.89,1.63 L39.89,0.13 Z" id="Shape" fill="#28245E" fill-rule="nonzero"></path>
                            <rect id="Rectangle-path" fill="#FFFFFF" fill-rule="nonzero" x="19.24" y="10.24" width="7.52" height="7.52" rx="1.5"></rect>
                            <polygon id="Shape" fill="#FFFFFF" fill-rule="nonzero" points="23 16.37 23.95 18.01 24.89 19.65 23 19.65 21.11 19.65 22.05 18.01"></polygon>
                            <path d="M26.19,20.4 L19.8,20.4 L23,14.87 L26.19,20.4 Z M22.41,18.89 L23.59,18.89 L23,17.89 L22.41,18.89 Z" id="Shape" fill="#28245E" fill-rule="nonzero"></path>
                            <rect id="Rectangle-path" fill="#28245E" fill-rule="nonzero" x="22.47" y="19.88" width="1.5" height="2.21"></rect>
                            <rect id="Rectangle-path" fill="#FFFFFF" fill-rule="nonzero" x="45.35" y="29.6" width="23.53" height="33.15" rx="1.25"></rect>
                            <path d="M67.62,64 L46.62,64 C45.2227196,64 44.09,62.8672804 44.09,61.47 L44.09,30.85 C44.09,29.4527196 45.2227196,28.32 46.62,28.32 L67.62,28.32 C69.0172804,28.32 70.15,29.4527196 70.15,30.85 L70.15,61.49 C70.1390158,62.8794636 69.009507,64.0000434 67.62,64 Z M68,30 L46.09,30 L46.09,62.26 L67.97,62.26 L68,30 Z" id="Shape" fill="#28245E" fill-rule="nonzero"></path>
                            <rect id="Rectangle-path" stroke="#28245E" stroke-linejoin="round" x="48.42" y="32.87" width="17.37" height="26.37" rx="1.52"></rect>
                            <rect id="Rectangle-path" fill="#FFFFFF" fill-rule="nonzero" x="62.3" y="38.07" width="12.61" height="24.83" rx="0.79"></rect>
                            <path d="M74.13,64.18 L63.13,64.18 C62.5716292,64.1989848 62.0294947,63.99036 61.6278948,63.6019583 C61.2262949,63.2135565 60.9996773,62.6786934 61,62.12 L61,38.86 C60.9999867,37.7206645 61.9206777,36.795504 63.06,36.79 L74.06,36.79 C75.2032294,36.79 76.13,37.7167706 76.13,38.86 L76.13,62.12 C76.1252612,63.2325616 75.2419357,64.1423869 74.13,64.18 Z M62.53,62.18 L74.69,62.18 L74.69,38.79 L62.53,38.79 L62.53,62.18 Z" id="Shape" fill="#28245E" fill-rule="nonzero"></path>
                            <rect id="Rectangle-path" fill="#28245E" fill-rule="nonzero" x="62.12" y="58.02" width="13.55" height="1.58"></rect>
                            <path d="M66.1,46.38 C65.8774779,46.385429 65.6999338,46.5674117 65.7,46.79 L65.7,46.79 L65.7,48.5 L65.7,48.5 C65.6747995,48.6598822 65.7460178,48.8196269 65.8817836,48.9077462 C66.0175494,48.9958656 66.1924506,48.9958656 66.3282164,48.9077462 C66.4639822,48.8196269 66.5352005,48.6598822 66.51,48.5 L66.51,48.5 L66.51,46.79 L66.51,46.79 C66.51,46.5635633 66.3264367,46.38 66.1,46.38 L66.1,46.38 Z" id="Shape" fill="#28245E" fill-rule="nonzero"></path>
                            <path d="M71.3,46.79 C71.2947222,46.5657858 71.1142142,46.3852778 70.89,46.38 C70.6635633,46.38 70.48,46.5635633 70.48,46.79 L70.48,46.79 L70.48,48.5 L70.48,48.5 C70.48,48.7264367 70.6635633,48.91 70.89,48.91 C71.1142142,48.9047222 71.2947222,48.7242142 71.3,48.5 L71.3,48.5 L71.3,46.79 Z" id="Shape" fill="#28245E" fill-rule="nonzero"></path>
                            <path d="M66.68,46.46 L66.68,46.46 L66.68,49.14 C66.68,49.3609139 66.8590861,49.54 67.08,49.54 L67.42,49.54 L67.42,50.48 L67.42,50.48 C67.4252778,50.7042142 67.6057858,50.8847222 67.83,50.89 C68.0564367,50.89 68.24,50.7064367 68.24,50.48 L68.24,50.48 L68.24,49.54 L68.79,49.54 L68.79,50.48 C68.79,50.6264789 68.8681455,50.761831 68.995,50.8350705 C69.1218544,50.9083099 69.2781456,50.9083099 69.405,50.8350705 C69.5318545,50.761831 69.61,50.6264789 69.61,50.48 L69.61,49.54 L69.95,49.54 C70.1725883,49.5400662 70.354571,49.3625221 70.36,49.14 L70.36,46.46 L66.68,46.46 Z" id="Shape" fill="#28245E" fill-rule="nonzero"></path>
                            <path d="M70.33,46.31 L70.33,46.12 C70.3348254,46.0634361 70.3348254,46.0065639 70.33,45.95 C70.2136628,45.4658134 69.8873212,45.0588031 69.44,44.84 L69.72,44.32 C69.7418413,44.2939754 69.7418413,44.2560246 69.72,44.23 C69.70861,44.217085 69.69222,44.2096863 69.675,44.2096863 C69.65778,44.2096863 69.64139,44.217085 69.63,44.23 L69.35,44.75 C69.09651,44.6443792 68.8246141,44.59 68.55,44.59 C68.2722484,44.5910031 67.997272,44.6453194 67.74,44.75 L67.46,44.23 C67.44861,44.217085 67.43222,44.2096863 67.415,44.2096863 C67.39778,44.2096863 67.38139,44.217085 67.37,44.23 C67.351525,44.2571556 67.351525,44.2928444 67.37,44.32 L67.66,44.84 C67.240668,45.036855 66.9219429,45.3990426 66.78,45.84 C66.7647306,45.9628607 66.7647306,46.0871393 66.78,46.21 L66.78,46.26 L70.33,46.31 Z M69.33,45.31 C69.376793,45.3072426 69.4226481,45.3239285 69.4567263,45.3561134 C69.4908044,45.3882983 69.5100812,45.4331259 69.51,45.48 C69.5046871,45.5754859 69.4256334,45.6501477 69.33,45.65 C69.2382491,45.6450298 69.1649702,45.5717509 69.16,45.48 C69.1653009,45.390038 69.2398821,45.319844 69.33,45.32 L69.33,45.31 Z M67.66,45.31 C67.7050868,45.31 67.748327,45.3279107 67.7802082,45.3597918 C67.8120893,45.391673 67.83,45.4349132 67.83,45.48 C67.8250298,45.5717509 67.7517509,45.6450298 67.66,45.65 C67.5661116,45.65 67.49,45.5738884 67.49,45.48 C67.4899135,45.4357745 67.5081363,45.3934858 67.5403413,45.3631752 C67.5725464,45.3328646 67.6158609,45.3172358 67.66,45.32 L67.66,45.31 Z" id="Shape" fill="#28245E" fill-rule="nonzero"></path>
                            <path d="M57.45,45.08 C57.4554297,44.6708356 57.6707043,44.2931608 58.02,44.08 C57.7870964,43.7589281 57.4166005,43.5662703 57.02,43.56 C56.62,43.56 56.23,43.8 56.02,43.8 C55.81,43.8 55.49,43.57 55.15,43.57 C54.6993947,43.5861349 54.2899153,43.8363724 54.07,44.23 C53.7149395,45.1110435 53.8397045,46.1129442 54.4,46.88 C54.62,47.2 54.88,47.55 55.23,47.54 C55.58,47.53 55.69,47.33 56.09,47.33 C56.49,47.33 56.61,47.54 56.96,47.53 C57.31,47.52 57.54,47.21 57.76,46.89 C57.9183075,46.6602628 58.0397706,46.4072147 58.12,46.14 C57.7049392,45.9522683 57.4414865,45.5354626 57.45,45.08 Z" id="Shape" fill="#28245E" fill-rule="nonzero"></path>
                            <path d="M56.79,43.13 C56.9852352,42.8954484 57.0820074,42.5943795 57.06,42.29 C56.7615516,42.319712 56.4859104,42.4629023 56.29,42.69 C56.0899833,42.9104425 55.9888197,43.2030944 56.01,43.5 C56.3125884,43.5010289 56.5993699,43.3649915 56.79,43.13 L56.79,43.13 Z" id="Shape" fill="#28245E" fill-rule="nonzero"></path>
                            <rect id="Rectangle-path" fill="#FFFFFF" fill-rule="nonzero" x="0.76" y="33.68" width="37.34" height="29.47"></rect>
                            <path d="M38.85,64.15 L0,64.15 L0,32.72 L38.85,32.72 L38.85,64.15 Z M1.52,62.63 L37.34,62.63 L37.34,34.24 L1.52,34.24 L1.52,62.63 Z" id="Shape" fill="#28245E" fill-rule="nonzero"></path>
                            <rect id="Rectangle-path" fill="#FFFFFF" fill-rule="nonzero" x="0.76" y="29.12" width="37.34" height="4.36"></rect>
                            <path d="M38.85,34.24 L0,34.24 L0,28.36 L38.85,28.36 L38.85,34.24 Z M1.52,32.72 L37.34,32.72 L37.34,29.88 L1.52,29.88 L1.52,32.72 Z" id="Shape" fill="#28245E" fill-rule="nonzero"></path>
                            <path d="M2.46,31.27 L3.88,31.27" id="Shape" fill="#FFFFFF" fill-rule="nonzero"></path>
                            <rect id="Rectangle-path" fill="#28245E" fill-rule="nonzero" x="2.46" y="30.51" width="1.42" height="1.52"></rect>
                            <path d="M4.92,31.27 L6.33,31.27" id="Shape" fill="#FFFFFF" fill-rule="nonzero"></path>
                            <rect id="Rectangle-path" fill="#28245E" fill-rule="nonzero" x="4.92" y="30.51" width="1.42" height="1.52"></rect>
                            <path d="M7.37,31.27 L8.79,31.27" id="Shape" fill="#FFFFFF" fill-rule="nonzero"></path>
                            <rect id="Rectangle-path" fill="#28245E" fill-rule="nonzero" x="7.37" y="30.51" width="1.42" height="1.52"></rect>
                            <rect id="Rectangle-path" fill="#28245E" fill-rule="nonzero" x="7.67" y="35.85" width="3.47" height="1.52"></rect>
                            <rect id="Rectangle-path" fill="#28245E" fill-rule="nonzero" x="15.66" y="35.85" width="7.1" height="1.52"></rect>
                            <rect id="Rectangle-path" fill="#28245E" fill-rule="nonzero" x="12.14" y="35.85" width="1.63" height="1.52"></rect>
                            <rect id="Rectangle-path" fill="#28245E" fill-rule="nonzero" x="8.82" y="42.56" width="4" height="1.52"></rect>
                            <rect id="Rectangle-path" fill="#28245E" fill-rule="nonzero" x="17.35" y="42.56" width="5.42" height="1.52"></rect>
                            <rect id="Rectangle-path" fill="#28245E" fill-rule="nonzero" x="13.78" y="42.56" width="2.43" height="1.52"></rect>
                            <rect id="Rectangle-path" fill="#28245E" fill-rule="nonzero" x="22.98" y="49.26" width="10.57" height="1.52"></rect>
                            <rect id="Rectangle-path" fill="#28245E" fill-rule="nonzero" x="13.78" y="49.26" width="7.88" height="1.52"></rect>
                            <rect id="Rectangle-path" fill="#28245E" fill-rule="nonzero" x="28.31" y="42.56" width="6.2" height="1.52"></rect>
                            <rect id="Rectangle-path" fill="#28245E" fill-rule="nonzero" x="24.29" y="42.56" width="2.89" height="1.52"></rect>
                            <rect id="Rectangle-path" fill="#28245E" fill-rule="nonzero" x="10.72" y="45.91" width="2.11" height="1.52"></rect>
                            <rect id="Rectangle-path" fill="#28245E" fill-rule="nonzero" x="13.78" y="45.91" width="8.04" height="1.52"></rect>
                            <rect id="Rectangle-path" fill="#28245E" fill-rule="nonzero" x="27.77" y="35.85" width="7.1" height="1.52"></rect>
                            <rect id="Rectangle-path" fill="#28245E" fill-rule="nonzero" x="24.24" y="35.85" width="1.63" height="1.52"></rect>
                            <rect id="Rectangle-path" fill="#28245E" fill-rule="nonzero" x="7.67" y="39.21" width="14" height="1.52"></rect>
                            <rect id="Rectangle-path" fill="#28245E" fill-rule="nonzero" x="7.67" y="52.66" width="19.26" height="1.52"></rect>
                            <rect id="Rectangle-path" fill="#28245E" fill-rule="nonzero" x="7.67" y="56.01" width="22.31" height="1.52"></rect>
                            <rect id="Rectangle-path" fill="#28245E" fill-rule="nonzero" x="7.67" y="59.36" width="9.68" height="1.52"></rect>
                            <rect id="Rectangle-path" fill="#28245E" fill-rule="nonzero" x="3.58" y="35.85" width="1.44" height="1.52"></rect>
                            <rect id="Rectangle-path" fill="#28245E" fill-rule="nonzero" x="3.58" y="39.21" width="1.44" height="1.52"></rect>
                            <rect id="Rectangle-path" fill="#28245E" fill-rule="nonzero" x="3.58" y="42.56" width="1.44" height="1.52"></rect>
                            <rect id="Rectangle-path" fill="#28245E" fill-rule="nonzero" x="3.58" y="45.91" width="1.44" height="1.52"></rect>
                            <rect id="Rectangle-path" fill="#28245E" fill-rule="nonzero" x="3.58" y="49.26" width="1.44" height="1.52"></rect>
                            <rect id="Rectangle-path" fill="#28245E" fill-rule="nonzero" x="3.58" y="52.61" width="1.44" height="1.52"></rect>
                            <rect id="Rectangle-path" fill="#28245E" fill-rule="nonzero" x="3.58" y="55.96" width="1.44" height="1.52"></rect>
                            <rect id="Rectangle-path" fill="#28245E" fill-rule="nonzero" x="3.58" y="59.31" width="1.44" height="1.52"></rect>
                        </g>
                    </g>
                </g>
            </g>
        </g>
    </g>
</svg>