<?xml version="1.0" encoding="UTF-8"?>
<svg width="81px" height="54px" viewBox="0 0 81 54" version="1.1" xmlns="http://www.w3.org/2000/svg" xmlns:xlink="http://www.w3.org/1999/xlink">
    <!-- Generator: Sketch 42 (36781) - http://www.bohemiancoding.com/sketch -->
    <title>icono-diseño-web</title>
    <desc>Created with Sketch.</desc>
    <defs></defs>
    <g id="Page-1" stroke="none" stroke-width="1" fill="none" fill-rule="evenodd">
        <g id="Artboard" transform="translate(-38.000000, -62.000000)" fill-rule="nonzero">
            <g id="icono-diseño-web" transform="translate(38.000000, 62.000000)">
                <g id="icono-diseño-web">
                    <g id="Layer_2">
                        <g id="Layer_1-2">
                            <circle id="Oval" fill="#FFFFFF" cx="50.82" cy="36.94" r="3.66"></circle>
                            <circle id="Oval" fill="#FFFFFF" cx="70.58" cy="36.97" r="3.66"></circle>
                            <polygon id="Shape" fill="#FFFFFF" points="79.57 15.8 48.49 15.75 52.62 29.19 75.32 29.47"></polygon>
                            <path d="M52.16,10.68 L52.16,13.6 L59.38,13.6 C59.2945647,13.2533005 59.2542316,12.8970244 59.26,12.54 C59.1800986,10.8073177 60.0589817,9.17093877 61.5476249,8.28070648 C63.0362681,7.39047419 64.8937319,7.39047419 66.3823751,8.28070648 C67.8710183,9.17093877 68.7499014,10.8073177 68.67,12.54 C68.6680588,12.897188 68.6244303,13.2529286 68.54,13.6 L75.77,13.6 L75.77,11.1 L72.77,10.85 C72.5697068,9.7891184 72.1801678,8.77292969 71.62,7.85 L73.62,5.53 L71.3,3.2 L69,5.1 C68.0884897,4.48361214 67.0716733,4.03960228 66,3.79 L65.76,0.79 L62.53,0.79 L62.28,3.79 C61.2191184,3.99029323 60.2029297,4.37983223 59.28,4.94 L57,2.88 L54.6,5.22 L56.51,7.48 C55.8991278,8.37635506 55.4553251,9.37575793 55.2,10.43 L52.16,10.68 Z" id="Shape" stroke="#28245E" stroke-width="1.5" stroke-linecap="round" stroke-linejoin="round" fill="#FFFFFF"></path>
                            <path d="M51.13,41.67 C49.2119399,41.6699957 47.4829346,40.5140468 46.7498624,38.7416022 C46.0167903,36.9691576 46.4241608,34.9296169 47.7818655,33.5747765 C49.1395703,32.2199361 51.1799668,31.8168738 52.9508593,32.5536876 C54.7217517,33.2905014 55.8740465,35.0219441 55.87,36.94 C55.8700028,38.1962085 55.3702925,39.4008205 54.4810814,40.2881556 C53.5918703,41.1754907 52.3862057,41.6726558 51.13,41.67 Z M51.13,33.83 C49.8712203,33.8259525 48.734136,34.581108 48.2496147,35.7429091 C47.7650934,36.9047102 48.0286978,38.2440135 48.9173595,39.1355419 C49.8060213,40.0270704 51.1444687,40.2949867 52.3078242,39.8142097 C53.4711798,39.3334326 54.2299935,38.1987862 54.23,36.94 C54.2326564,36.1178276 53.9085952,35.3282744 53.3291068,34.7450353 C52.7496185,34.1617963 51.9621724,33.8326479 51.14,33.83 L51.13,33.83 Z" id="Shape" fill="#28245E"></path>
                            <path d="M51.14,38.41 C50.5395951,38.4140433 49.9962433,38.0549433 49.7646066,37.5010057 C49.5329699,36.9470682 49.6589555,36.3080755 50.0835155,35.8835155 C50.5080755,35.4589555 51.1470682,35.3329699 51.7010057,35.5646066 C52.2549433,35.7962433 52.6140433,36.3395951 52.61,36.94 C52.61,37.7518586 51.9518586,38.41 51.14,38.41 L51.14,38.41 Z" id="Shape" fill="#FF6B00"></path>
                            <path d="M70.57,41.7 C68.6492236,41.6999316 66.9183708,40.5406918 66.1871145,38.7645595 C65.4558581,36.9884272 65.8687778,34.9465688 67.2327147,33.594142 C68.5966515,32.2417152 70.6419358,31.8461139 72.4118073,32.5923957 C74.1816789,33.3386775 75.3262091,35.079292 75.31,37 C75.2880398,39.6021953 73.172288,41.7000927 70.57,41.7 L70.57,41.7 Z M70.57,33.86 C68.8563173,33.8600797 67.4656176,35.2464223 67.4601605,36.9600963 C67.4547033,38.6737704 68.8365453,40.068942 70.5501928,40.079936 C72.2638402,40.09093 73.6634693,38.713603 73.68,37 C73.6853214,36.1725194 73.3617006,35.3768183 72.7803342,34.7879503 C72.1989678,34.1990824 71.4074808,33.8652874 70.58,33.86 L70.57,33.86 Z" id="Shape" fill="#28245E"></path>
                            <path d="M70.57,38.44 C69.9678028,38.43978 69.4257835,38.0747075 69.1992503,37.5167431 C68.9727171,36.9587788 69.1068449,36.319191 69.5384553,35.8992457 C69.9700657,35.4793005 70.6130876,35.3627427 71.1646373,35.6044747 C71.7161871,35.8462067 72.0662756,36.3980227 72.05,37 C72.0336077,37.8040242 71.3741715,38.4456378 70.57,38.44 L70.57,38.44 Z" id="Shape" fill="#FFFFFF"></path>
                            <rect id="Rectangle-path" fill="#28245E" transform="translate(61.135985, 36.953116) rotate(-89.910000) translate(-61.135985, -36.953116) " x="60.320985" y="31.4331163" width="1.63" height="11.04"></rect>
                            <polygon id="Shape" fill="#28245E" points="52.55 33.15 50.99 32.66 52.05 29.25 46.15 11.47 41.3 10.07 41.75 8.51 47.02 10.02 47.56 10.55 53.68 28.99 53.69 29.49"></polygon>
                            <path d="M75,30.09 L52.93,30.09 L52.15,29.52 L47.89,15.86 L48.67,14.8 L79.81,14.8 L80.59,15.8 L77,28.22 C76.9313797,29.2735006 76.0557307,30.0922324 75,30.09 L75,30.09 Z M53.51,28.43 L74.98,28.43 C75.2,28.43 75.42,28.32 75.42,28.06 L75.42,27.84 L78.69,16.45 L49.74,16.4 L53.51,28.43 Z" id="Shape" fill="#28245E"></path>
                            <rect id="Rectangle-path" fill="#28245E" transform="translate(64.341032, 20.156747) rotate(-89.910000) translate(-64.341032, -20.156747) " x="63.5260323" y="10.0467466" width="1.63" height="20.22"></rect>
                            <rect id="Rectangle-path" fill="#28245E" transform="translate(64.371074, 24.543642) rotate(-89.910000) translate(-64.371074, -24.543642) " x="63.556074" y="15.8036424" width="1.63" height="17.48"></rect>
                            <path d="M39.28,33.51 L39.28,11.01 C39.28,10.4577153 38.8322847,10.01 38.28,10.01 L1.91,9.9 C1.62180083,9.89979473 1.34594194,10.016947 1.14596244,10.2244729 C0.945982935,10.4319988 0.839124484,10.712006 0.85,11 L0.85,33.5 L39.28,33.51 Z" id="Shape" fill="#FFFFFF"></path>
                            <path d="M40.1,34.33 L0,34.27 L0,11 C-0.0110279888,10.4901357 0.186660226,9.99788589 0.547273056,9.63727306 C0.907885886,9.27666023 1.4001357,9.07897201 1.91,9.09 L38.27,9.14 C39.2927329,9.15082348 40.1191765,9.97726714 40.13,11 L40.1,34.33 Z M1.63,32.64 L38.47,32.7 L38.5,11 C38.5,10.936348 38.4747144,10.8753031 38.4297056,10.8302944 C38.3846969,10.7852856 38.323652,10.76 38.26,10.76 L1.91,10.76 C1.77745166,10.76 1.67,10.8674517 1.67,11 L1.63,32.64 Z" id="Shape" fill="#28245E"></path>
                            <rect id="Rectangle-path" fill="#FFFFFF" transform="translate(20.046468, 21.694103) rotate(-89.910000) translate(-20.046468, -21.694103) " x="11.3364677" y="5.48910315" width="17.42" height="32.41"></rect>
                            <path d="M0.82,33.43 L0.82,36.68 C0.863502749,37.3640083 1.3893739,37.9193282 2.07,38 L38.29,38 C38.9133445,37.9268781 39.3603393,37.3636646 39.29,36.74 L39.29,33.44 L0.82,33.43 Z" id="Shape" fill="#FFFFFF"></path>
                            <path d="M38.29,38.87 L2.07,38.81 C0.934625954,38.7386003 0.0389378804,37.8169503 2.45359288e-16,36.68 L2.45359288e-16,32.62 L40.1,32.68 L40.1,36.79 C40.1473587,37.8548894 39.351221,38.7697881 38.29,38.87 Z M1.63,34.25 L1.63,36.68 C1.67364842,36.9148557 1.8425998,37.1068459 2.07,37.18 L38.3,37.24 C38.35,37.24 38.47,37.04 38.47,36.79 L38.47,34.31 L1.63,34.25 Z" id="Shape" fill="#28245E"></path>
                            <path d="M15.77,38 C15.7,38.81 15.84,40.6 15.67,41.48 C15.5,42.36 15.4,42.31 14.97,42.54 C14.73,42.68 14.33,42.86 13.97,43.01 L13.97,43.01" id="Shape" fill="#FFFFFF"></path>
                            <path d="M14.31,43.79 L13.66,42.3 C14.07,42.12 14.4,41.96 14.58,41.87 L14.64,41.87 L14.77,41.79 C14.8156697,41.6600575 14.8491473,41.5261468 14.87,41.39 C14.9469195,40.7262885 14.9703283,40.0574652 14.94,39.39 L14.94,38.02 L16.56,38.16 L16.56,39.37 C16.5971005,40.1580747 16.5636339,40.9478886 16.46,41.73 C16.26,42.73 16.03,42.98 15.46,43.32 L15.41,43.32 C15.08,43.45 14.63,43.65 14.31,43.79 Z" id="Shape" fill="#28245E"></path>
                            <path d="M26.06,43.07 C25.72,42.92 25.31,42.73 25.06,42.6 C24.64,42.36 24.56,42.34 24.4,41.53 C24.24,40.72 24.4,38.91 24.31,38.1" id="Shape" fill="#FFFFFF"></path>
                            <path d="M25.73,43.82 C25.4,43.67 24.95,43.47 24.67,43.31 L24.67,43.31 C24.01,42.94 23.82,42.66 23.67,41.71 C23.5669279,40.9378978 23.53346,40.1580941 23.57,39.38 C23.5910858,38.9802779 23.5910858,38.5797221 23.57,38.18 L25.12,38 L25.12,39.35 C25.0887481,40.0174601 25.1121595,40.6863582 25.19,41.35 C25.2151962,41.4918133 25.2485855,41.6320482 25.29,41.77 L25.42,41.84 C25.62,41.95 25.96,42.11 26.42,42.29 L25.73,43.82 Z" id="Shape" fill="#28245E"></path>
                            <path d="M12.93,42.98 L27.16,43" id="Shape" fill="#FFFFFF"></path>
                            <rect id="Rectangle-path" fill="#28245E" transform="translate(20.036434, 42.992545) rotate(-89.910000) translate(-20.036434, -42.992545) " x="19.2214336" y="35.8775454" width="1.63" height="14.23"></rect>
                            <path d="M16,19.6 L24.12,19.6 C24.1452932,18.7475541 24.3935391,17.9166198 24.84,17.19 C26.6554269,14.9680347 27.7692778,12.2565038 28.04,9.4 C28.3642433,6.35591628 26.9228882,3.39370634 24.3275108,1.77025469 C21.7321333,0.146803032 18.4378667,0.146803032 15.8424892,1.77025469 C13.2471118,3.39370634 11.8057567,6.35591628 12.13,9.4 C12.390066,12.2585476 13.4973157,14.974443 15.31,17.2 C15.7499393,17.9241402 15.9881726,18.7527776 16,19.6 Z" id="Shape" fill="#FFFFFF"></path>
                            <path d="M24.89,20.43 L15.25,20.43 L15.2,19.67 C15.1987533,18.9674804 15.012507,18.2776793 14.66,17.67 C12.7502315,15.3031878 11.5906986,12.4200251 11.33,9.39 C11.33,4.54646274 15.2564627,0.62 20.1,0.62 C24.9435373,0.62 28.87,4.54646274 28.87,9.39 C28.5950781,12.428525 27.4180113,15.3154728 25.49,17.68 C25.137493,18.2876793 24.9512467,18.9774804 24.95,19.68 L24.89,20.43 Z M16.75,18.78 L23.41,18.78 C23.50382,18.0336195 23.7746783,17.3204736 24.2,16.7 C25.8939188,14.6133245 26.9371533,12.0747873 27.2,9.4 C26.8166265,5.7690154 23.7556633,3.01227476 20.1044967,3.00970351 C16.4533301,3.00713227 13.3884872,5.75955897 13,9.39 C13.2645763,12.0643566 14.3076138,14.6024146 16,16.69 C16.4136929,17.3165882 16.6709013,18.0333421 16.75,18.78 L16.75,18.78 Z" id="Shape" fill="#28245E"></path>
                            <rect id="Rectangle-path" fill="#28245E" transform="translate(17.825676, 15.200747) rotate(-7.900000) translate(-17.825676, -15.200747) " x="17.0106755" y="10.7857474" width="1.63" height="8.83"></rect>
                            <rect id="Rectangle-path" fill="#28245E" transform="translate(22.352589, 15.212300) rotate(-81.930000) translate(-22.352589, -15.212300) " x="17.9375887" y="14.3972998" width="8.83" height="1.63"></rect>
                            <polygon id="Shape" fill="#28245E" points="22.51 12.73 21.45 12.73 21.04 12.37 20.62 12.72 19.56 12.72 19.14 12.37 18.73 12.72 17.67 12.72 16.72 11.9 17.79 10.67 18.2 11.03 18.61 10.67 19.68 10.67 20.09 11.03 20.5 10.67 21.57 10.68 21.98 11.03 22.4 10.68 23.46 11.91"></polygon>
                            <rect id="Rectangle-path" fill="#28245E" transform="translate(20.076525, 19.695962) rotate(-89.910000) translate(-20.076525, -19.695962) " x="19.2615251" y="15.1009616" width="1.63" height="9.19"></rect>
                            <rect id="Rectangle-path" fill="#28245E" transform="translate(20.076506, 22.119763) rotate(-89.910000) translate(-20.076506, -22.119763) " x="19.2615064" y="17.5247629" width="1.63" height="9.19"></rect>
                            <rect id="Rectangle-path" fill="#28245E" transform="translate(20.076503, 24.533564) rotate(-89.910000) translate(-20.076503, -24.533564) " x="19.2615035" y="21.5285642" width="1.63" height="6.01"></rect>
                            <rect id="Rectangle-path" fill="#28245E" transform="translate(17.742832, 20.857781) rotate(-89.910000) translate(-17.742832, -20.857781) " x="16.6878323" y="20.0427808" width="2.11" height="1.63"></rect>
                            <path d="M28.81,49 L28.81,27.66 C28.8043192,27.3444869 28.9285405,27.0405017 29.1535611,26.819263 C29.3785817,26.5980243 29.6846284,26.4789727 30,26.49 L61.34,26.49 C61.9751275,26.49 62.49,27.0048725 62.49,27.64 L62.49,29.08 L61.86,48.87 L29.7,49.4" id="Shape" fill="#FFFFFF"></path>
                            <path d="M29.63,49 L28,49 L28,27.66 C28,26.5554305 28.8954305,25.66 30,25.66 L61.34,25.66 C62.4445695,25.66 63.34,26.5554305 63.34,27.66 L63.34,32.03 L61.67,32.03 L61.67,27.68 C61.67,27.497746 61.522254,27.35 61.34,27.35 L30,27.3 C29.817746,27.3 29.67,27.447746 29.67,27.63 L29.63,49 Z" id="Shape" fill="#28245E"></path>
                            <rect id="Rectangle-path" fill="#FFFFFF" transform="translate(45.656660, 37.739330) rotate(-89.910000) translate(-45.656660, -37.739330) " x="36.8766603" y="23.3643303" width="17.56" height="28.75"></rect>
                            <path d="M67.47,48.92 L23.8,48.85 L23.8,50.92 C24.5620852,51.5085429 25.4593419,51.8970103 26.41,52.05 L40.31,52.05 L50.95,52.05 L64.84,52.05" id="Shape" fill="#FFFFFF"></path>
                            <path d="M64.84,52.92 L26.41,52.86 C25.2798943,52.7149796 24.2093693,52.2695031 23.31,51.57 L23,51.33 L23,48 L67.48,48.07 L67.48,49.7 L24.62,49.63 L24.62,50.45 C25.15342,50.8348541 25.7701343,51.0883922 26.42,51.19 L64.86,51.25 L64.84,52.92 Z" id="Shape" fill="#28245E"></path>
                            <rect id="Rectangle-path" fill="#FFFFFF" transform="translate(63.144670, 51.089125) rotate(0.090000) translate(-63.144670, -51.089125) " x="57.4896701" y="49.9191249" width="11.31" height="2.34"></rect>
                            <rect id="Rectangle-path" fill="#FFFFFF" transform="translate(63.304392, 31.659817) rotate(-89.910000) translate(-63.304392, -31.659817) " x="61.8343923" y="26.5048173" width="2.94" height="10.31"></rect>
                            <path d="M68.27,53.49 L58.27,53.49 C57.4382182,53.495634 56.756398,52.8316392 56.74,52 L56.74,33.17 L58.4,33.17 L58.4,51.89 L68.2,51.89 L68.2,31.21 L58.4,31.21 L58.4,34 L56.76,34 L56.76,31.06 C56.7573161,30.6534019 56.9176501,30.2626791 57.2051646,29.9751646 C57.4926791,29.6876501 57.8834019,29.5273161 58.29,29.53 L68.29,29.53 C69.1366107,29.5354976 69.8200178,30.2233715 69.82,31.07 L69.8,52 C69.783602,52.8316392 69.1017818,53.495634 68.27,53.49 Z" id="Shape" fill="#28245E"></path>
                            <rect id="Rectangle-path" fill="#FFFFFF" transform="translate(63.279357, 41.319983) rotate(-89.910000) translate(-63.279357, -41.319983) " x="55.9743568" y="36.4199834" width="14.61" height="9.8"></rect>
                            <rect id="Rectangle-path" fill="#28245E" transform="translate(63.279331, 49.452770) rotate(-89.910000) translate(-63.279331, -49.452770) " x="62.4643311" y="43.9227696" width="1.63" height="11.06"></rect>
                            <rect id="Rectangle-path" fill="#28245E" transform="translate(63.299383, 33.207229) rotate(-89.910000) translate(-63.299383, -33.207229) " x="62.4843826" y="27.6772285" width="1.63" height="11.06"></rect>
                        </g>
                    </g>
                </g>
            </g>
        </g>
    </g>
</svg>