<?xml version="1.0" encoding="UTF-8"?>
<svg width="101px" height="61px" viewBox="0 0 101 61" version="1.1" xmlns="http://www.w3.org/2000/svg" xmlns:xlink="http://www.w3.org/1999/xlink">
    <!-- Generator: Sketch 42 (36781) - http://www.bohemiancoding.com/sketch -->
    <title>icono-soluciones-web</title>
    <desc>Created with Sketch.</desc>
    <defs></defs>
    <g id="Page-1" stroke="none" stroke-width="1" fill="none" fill-rule="evenodd">
        <g id="Artboard" transform="translate(-220.000000, -183.000000)" fill-rule="nonzero">
            <g id="icono-soluciones-web" transform="translate(219.000000, 183.000000)">
                <g id="Layer_2">
                    <g>
                        <g id="Layer_1-2">
                            <path d="M8.86,26.32 L7.86,31.32 L19.86,30.32 L33.86,31.32 L33.86,29.16 C33.86,29.32 31.86,26.32 31.86,26.32 L8.86,26.32 Z" id="Shape" fill="#FFFFFF"></path>
                            <path d="M75.3,26.87 L75.3,2.06 C75.2945104,1.41773549 74.772288,0.89997654 74.13,0.9 L34,0.9 C33.3593497,0.9 32.84,1.41934969 32.84,2.06 L32.84,26.87 L75.3,26.87 Z" id="Shape" fill="#FFFFFF"></path>
                            <path d="M76.19,27.77 L32,27.77 L32,2.06 C31.9995271,0.94531886 32.8857917,0.0324663436 34,2.28705943e-16 L74.13,2.28705943e-16 C75.2677066,5.27076323e-16 76.19,0.922293415 76.19,2.06 L76.19,27.77 Z M33.78,26 L74.4,26 L74.4,2.06 C74.3946186,1.9148023 74.2752974,1.79990031 74.13,1.8 L34,1.8 C33.856406,1.8 33.74,1.91640597 33.74,2.06 L33.78,26 Z" id="Shape" fill="#28245E"></path>
                            <path d="M32.88,26.85 L32.88,30.43 C32.9330902,31.1852683 33.5176479,31.7950587 34.27,31.88 L74.21,31.88 C74.9,31.88 75.31,31.17 75.31,30.48 L75.31,26.85 L32.88,26.85 Z" id="Shape" fill="#FFFFFF"></path>
                            <path d="M74.21,32.78 L34.27,32.78 C33.0252143,32.6892128 32.0476362,31.6771827 32,30.43 L32,26 L76.21,26 L76.21,30.53 C76.2672152,31.6994715 75.3781141,32.6997101 74.21,32.78 Z M33.78,27.78 L33.78,30.46 C33.8340005,30.7173773 34.0205405,30.9267589 34.27,31.01 L74.21,31.01 C74.27,31.01 74.41,30.79 74.41,30.51 L74.41,27.75 L33.78,27.78 Z" id="Shape" fill="#28245E"></path>
                            <path d="M49.38,31.9 C49.3,32.79 49.46,34.77 49.27,35.74 C49.08,36.71 48.97,36.65 48.5,36.91 C48.24,37.06 47.79,37.26 47.42,37.42 L47.42,37.42" id="Shape" fill="#FFFFFF"></path>
                            <path d="M47.77,38.25 L47.06,36.6 C47.51,36.4 47.88,36.23 48.06,36.13 L48.12,36.13 L48.27,36.05 C48.3155508,35.9023121 48.3522822,35.7520471 48.38,35.6 C48.4631608,34.8630984 48.4865705,34.1206769 48.45,33.38 L48.45,31.87 L50.24,32.02 L50.24,33.35 C50.2841357,34.2182022 50.24731,35.0886282 50.13,35.95 C50.0998398,36.6880085 49.6653772,37.3493144 49,37.67 L48.94,37.67 C48.62,37.87 48.13,38.09 47.77,38.25 Z" id="Shape" fill="#28245E"></path>
                            <path d="M60.73,37.43 C60.35,37.27 59.9,37.06 59.63,36.91 C59.16,36.65 59.07,36.62 58.89,35.74 C58.71,34.86 58.89,32.84 58.79,31.95" id="Shape" fill="#FFFFFF"></path>
                            <path d="M60.37,38.25 C60.01,38.1 59.51,37.87 59.2,37.7 L59.2,37.7 C58.46,37.29 58.26,36.98 58.05,35.93 C57.9377903,35.0782383 57.9009808,34.2182345 57.94,33.36 L57.94,32.05 L59.73,31.9 C59.7564485,32.3963146 59.7564485,32.8936854 59.73,33.39 C59.6962861,34.1209573 59.7230438,34.8534507 59.81,35.58 C59.8350733,35.7391557 59.8718395,35.8962477 59.92,36.05 L60.06,36.13 C60.29,36.25 60.66,36.43 61.12,36.63 L60.37,38.25 Z" id="Shape" fill="#28245E"></path>
                            <path d="M46.25,37.35 L61.94,37.35" id="Shape" fill="#FFFFFF"></path>
                            <rect id="Rectangle-path" fill="#28245E" x="46.25" y="36.45" width="15.69" height="1.8"></rect>
                            <path d="M54.68,21.28 L53.51,21.28 C50.61,21.28 48.87,19.88 48.87,17.54 L48.87,9.63 C48.8755144,7.07130487 50.9512989,4.99999406 53.51,5 L54.68,5 C57.2386951,5.00551444 59.3100059,7.08129893 59.31,9.64 L59.31,17.55 C59.31,19.88 57.58,21.28 54.68,21.28 Z M53.51,6.79 C51.9415113,6.79 50.67,8.06151131 50.67,9.63 L50.67,17.54 C50.67,18.82 51.67,19.48 53.51,19.48 L54.68,19.48 C56.56,19.48 57.51,18.82 57.51,17.54 L57.51,9.63 C57.5100097,8.06540827 56.244582,6.79550913 54.68,6.79 L53.51,6.79 Z" id="Shape" fill="#28245E"></path>
                            <rect id="Rectangle-path" fill="#FFFFFF" x="47.46" y="11.22" width="13.26" height="10.64"></rect>
                            <path d="M59.83,12.12 L59.83,21 L48.36,21 L48.36,12.12 L59.83,12.12 L59.83,12.12 Z M61.62,10.32 L46.56,10.32 L46.56,22.76 L61.62,22.76 L61.62,10.32 L61.62,10.32 Z" id="Shape" fill="#28245E"></path>
                            <path d="M54.09,14 C53.8046589,13.9891219 53.527194,14.0949254 53.3215426,14.29303 C53.1158913,14.4911345 52.9997927,14.7644517 53,15.05 C53.0006098,15.4212712 53.1936358,15.7656901 53.51,15.96 L53.27,18.56 L54.83,18.56 L54.64,16 C54.9535371,15.8029876 55.1456094,15.4602704 55.15,15.09 C55.1609597,14.8029143 55.053807,14.5238766 54.8535131,14.3179139 C54.6532191,14.1119512 54.3772797,13.9970547 54.09,14 Z" id="Shape" fill="#28245E"></path>
                            <rect id="Rectangle-path" fill="#28245E" transform="translate(58.035821, 8.704938) rotate(-13.150000) translate(-58.035821, -8.704938) " x="57.5358213" y="7.80493764" width="0.9" height="1.8"></rect>
                            <path d="M60.44,9.06 L60,7.3 L61.81,6.88 L62.22,8.63 L60.44,9.06 Z M64.05,8.21 L63.64,6.46 L65.45,6 L65.86,7.75 L64.05,8.21 Z M67.67,7.37 L67.26,5.61 L69.06,5.19 L69.47,6.94 L67.67,7.37 Z M71.28,6.52 L70.87,4.77 L72.68,4.35 L73.09,6.1 L71.28,6.52 Z" id="Shape" fill="#28245E"></path>
                            <rect id="Rectangle-path" fill="#28245E" transform="translate(75.184093, 4.690718) rotate(-13.150000) translate(-75.184093, -4.690718) " x="74.6840932" y="3.7907185" width="0.9" height="1.8"></rect>
                            <rect id="Rectangle-path" fill="#28245E" transform="translate(50.233614, 8.710767) rotate(-76.850000) translate(-50.233614, -8.710767) " x="49.3336136" y="8.21076724" width="1.8" height="0.9"></rect>
                            <path d="M47.75,9.06 L45.94,8.63 L46.35,6.88 L48.16,7.3 L47.75,9.06 Z M44.13,8.21 L42.33,7.79 L42.74,6 L44.54,6.42 L44.13,8.21 Z M40.52,7.37 L38.71,6.94 L39.12,5.19 L40.93,5.61 L40.52,7.37 Z M36.91,6.52 L35.1,6.1 L35.51,4.35 L37.32,4.77 L36.91,6.52 Z" id="Shape" fill="#28245E"></path>
                            <rect id="Rectangle-path" fill="#28245E" transform="translate(33.114392, 4.713395) rotate(-76.840000) translate(-33.114392, -4.713395) " x="32.2143923" y="4.21339487" width="1.8" height="0.9"></rect>
                            <path d="M58.2,55.81 L58.2,32.29 C58.1946406,31.9497232 58.3260741,31.6215319 58.5648287,31.3790174 C58.8035832,31.1365029 59.129681,30.9999578 59.47,31 L94,31 C94.7014016,31 95.27,31.5685984 95.27,32.27 L95.27,55.81" id="Shape" fill="#FFFFFF"></path>
                            <path d="M96.2,55.81 L94.4,55.81 L94.4,32.29 C94.3947472,32.0878704 94.2321296,31.9252528 94.03,31.92 L59.47,31.92 C59.2656546,31.92 59.1,32.0856546 59.1,32.29 L59.1,55.81 L57.3,55.81 L57.3,32.29 C57.3,31.0915421 58.2715421,30.12 59.47,30.12 L94,30.12 C94.5755198,30.12 95.1274678,30.3486243 95.5344217,30.7555783 C95.9413757,31.1625322 96.17,31.7144802 96.17,32.29 L96.2,55.81 Z" id="Shape" fill="#28245E"></path>
                            <path d="M52.67,55.7 L52.67,58 C53.5150624,58.6493799 54.5080761,59.0788841 55.56,59.25 L97.94,59.25 C98.9919239,59.0788841 99.9849376,58.6493799 100.83,58 L100.83,55.7 L52.67,55.7 Z" id="Shape" fill="#FFFFFF"></path>
                            <path d="M97.94,60.12 L55.56,60.12 C54.3093527,59.9586679 53.124868,59.4648449 52.13,58.69 L51.77,58.42 L51.77,54.8 L101.72,54.8 L101.72,58.42 L101.36,58.69 C100.369219,59.4653399 99.1877916,59.9593286 97.94,60.12 L97.94,60.12 Z M53.57,57.5 C54.1637252,57.9253304 54.8485798,58.2061208 55.57,58.32 L97.94,58.32 C98.6603409,58.2022835 99.3443497,57.9218399 99.94,57.5 L99.94,56.6 L53.57,56.6 L53.57,57.5 Z" id="Shape" fill="#28245E"></path>
                            <polygon id="Shape" fill="#FFFFFF" points="88.99 53.08 65.11 53.08 65.11 23.04 82.92 23.04 88.99 29.16"></polygon>
                            <rect id="Rectangle-path" fill="#28245E" x="87.46" y="30.63" width="1.57" height="22.45"></rect>
                            <polygon id="Shape" fill="#28245E" points="66.04 53.08 64.46 53.08 64.46 23.04 81.84 23.04 81.84 24.61 66.04 24.61"></polygon>
                            <polygon id="Shape" fill="#28245E" points="82.92 29.16 88.99 29.16 82.92 23.09"></polygon>
                            <rect id="Rectangle-path" fill="#28245E" x="72.85" y="30.5" width="11.04" height="1.57"></rect>
                            <rect id="Rectangle-path" fill="#28245E" x="72.85" y="32.96" width="11.04" height="1.57"></rect>
                            <polygon id="Shape" fill="#28245E" points="69.62 34.39 67.89 33.28 68.75 31.96 69.27 32.3 70.54 30.71 71.77 31.7"></polygon>
                            <rect id="Rectangle-path" fill="#28245E" x="72.85" y="37.85" width="11.04" height="1.57"></rect>
                            <rect id="Rectangle-path" fill="#28245E" x="72.85" y="40.31" width="11.04" height="1.57"></rect>
                            <polygon id="Shape" fill="#28245E" points="69.62 41.74 67.89 40.63 68.75 39.3 69.27 39.64 70.54 38.06 71.77 39.04"></polygon>
                            <rect id="Rectangle-path" fill="#28245E" x="72.85" y="45.19" width="11.04" height="1.57"></rect>
                            <rect id="Rectangle-path" fill="#28245E" x="72.85" y="47.65" width="11.04" height="1.57"></rect>
                            <polygon id="Shape" fill="#28245E" points="69.62 49.08 67.89 47.97 68.75 46.65 69.27 46.99 70.54 45.4 71.77 46.38"></polygon>
                            <path d="M39.53,48.74 L39.53,45.07 L36.27,44.8 C36.0531886,43.6187306 35.622818,42.4868896 35,41.46 L37.18,38.89 L34.58,36.29 L32.08,38.4 C31.0793841,37.7405712 29.968387,37.2663651 28.8,37 L28.52,33.63 L24.84,33.63 L24.57,36.9 C23.3922503,37.1236189 22.2643045,37.5571837 21.24,38.18 L18.66,36 L16.06,38.6 L18.18,41.1 C17.5029029,42.0933487 17.0116161,43.2012851 16.73,44.37 L13.37,44.65 L13.37,48.32 L16.63,48.59 C16.855563,49.7718739 17.2925662,50.9033397 17.92,51.93 L15.74,54.5 L18.34,57.1 L20.84,55 C21.8316777,55.6713271 22.9358763,56.1590713 24.1,56.44 L24.38,59.81 L28.06,59.81 L28.33,56.54 C29.5094521,56.3169234 30.6380726,55.8797101 31.66,55.25 L34.24,57.43 L36.84,54.84 L34.72,52.34 C35.4048649,51.325445 35.8964443,50.1931174 36.17,49 L39.53,48.74 Z" id="Shape" fill="#FFFFFF"></path>
                            <path d="M28.89,60.65 L23.56,60.65 L23.26,57.09 C22.4394878,56.8518634 21.6505149,56.5161302 20.91,56.09 L18.29,58.31 L14.52,54.54 L16.83,51.82 C16.4207735,51.0620768 16.1083299,50.2557706 15.9,49.42 L12.47,49.14 L12.47,43.78 L16.03,43.48 C16.2685227,42.6628042 16.6042566,41.8771869 17.03,41.14 L14.8,38.51 L18.57,34.74 L21.3,37.05 C22.0591153,36.651014 22.8608627,36.339037 23.69,36.12 L24,32.69 L29.33,32.69 L29.63,36.26 C30.4505122,36.4981366 31.2394851,36.8338698 31.98,37.26 L34.61,35.04 L38.37,38.8 L36.06,41.53 C36.4782003,42.3095061 36.7941387,43.1396848 37,44 L40.43,44.28 L40.43,49.61 L36.87,49.9 C36.6334344,50.7210713 36.2976224,51.5102295 35.87,52.25 L38.1,54.88 L34.33,58.65 L31.56,56.3 C30.8024843,56.7000265 30.0002204,57.0088477 29.17,57.22 L28.89,60.65 Z M25.21,58.86 L27.21,58.86 L27.47,55.74 L28.14,55.61 C29.2016595,55.4016411 30.2175966,55.0054257 31.14,54.44 L31.7,54.1 L34.14,56.16 L35.57,54.74 L33.57,52.35 L33.96,51.78 C34.5783996,50.8695984 35.0225783,49.8523953 35.27,48.78 L35.42,48.15 L38.61,47.88 L38.61,45.88 L35.49,45.62 L35.38,45 C35.1765194,43.936929 34.7799715,42.9201396 34.21,42 L33.87,41.45 L35.94,39.01 L34.51,37.58 L32.12,39.58 L31.56,39.2 C30.6481327,38.5820565 29.6316489,38.1348036 28.56,37.88 L28,37.68 L27.74,34.49 L25.74,34.49 L25.48,37.61 L24.81,37.74 C23.7483405,37.9483589 22.7324034,38.3445743 21.81,38.91 L21.25,39.25 L18.81,37.19 L17.39,38.61 L19.39,41 L19,41.57 C18.3816004,42.4804016 17.9374217,43.4976047 17.69,44.57 L17.54,45.2 L14.35,45.47 L14.35,47.47 L17.47,47.73 L17.6,48.4 C17.8064809,49.4622043 18.2028234,50.478467 18.77,51.4 L19,52 L17,54.41 L18.43,55.84 L20.82,53.84 L21.38,54.22 C22.2918673,54.8379435 23.3083511,55.2851964 24.38,55.54 L25.02,55.69 L25.21,58.86 Z" id="Shape" fill="#28245E"></path>
                            <path d="M30.52,46.67 C30.52,48.9177989 28.6977989,50.74 26.45,50.74 C24.2022011,50.74 22.38,48.9177989 22.38,46.67 C22.38,44.4222011 24.2022011,42.6 26.45,42.6 C28.6955181,42.605497 30.514503,44.4244819 30.52,46.67 L30.52,46.67 Z" id="Shape" fill="#FFFFFF"></path>
                            <path d="M26.45,51.65 C23.6885763,51.65 21.45,49.4114237 21.45,46.65 C21.45,43.8885763 23.6885763,41.65 26.45,41.65 C29.2114237,41.65 31.45,43.8885763 31.45,46.65 C31.45,49.4114237 29.2114237,51.65 26.45,51.65 Z M26.45,43.5 C25.161999,43.495956 23.9987593,44.269252 23.5039928,45.4584403 C23.0092263,46.6476287 23.2806574,48.0178252 24.1914161,48.9285839 C25.1021748,49.8393426 26.4723713,50.1107737 27.6615597,49.6160072 C28.850748,49.1212407 29.624044,47.958001 29.62,46.67 C29.62,44.9192573 28.2007427,43.5 26.45,43.5 L26.45,43.5 Z" id="Shape" fill="#28245E"></path>
                            <polygon id="Shape" fill="#FFFFFF" points="13.36 21.32 10.36 24.32 31.36 24.32 27.36 21.32"></polygon>
                            <path d="M33.36,27.32 L30.36,28.32 L33.36,33.32 L41.36,33.32 C41.36,33.32 39.36,29.32 37.36,29.32 C36.2703629,29.3718834 35.2005796,29.0152889 34.36,28.32 L33.36,27.32 Z" id="Shape" fill="#FFFFFF"></path>
                            <path d="M42.24,48.81 L41.85,48.81 L41.85,47.06 L41.85,47.06 L41.85,47.06 L42,47.06 C43.9399017,46.2535328 45.2056304,44.3608543 45.21,42.26 C45.223193,40.4131464 44.1668659,38.7253618 42.5,37.93 L42,37.67 L41.95,37.16 C41.5211833,32.6802119 37.750239,29.2646899 33.25,29.28 L32.45,29.28 L32.24,28.66 C30.4765082,23.2909017 25.2414568,19.8487662 19.613118,20.3576101 C13.9847791,20.866454 9.45195507,25.1916783 8.68,30.79 L8.61,31.33 L8.09,31.51 C4.48920303,32.8599451 2.35834402,36.5808505 3.01631237,40.369672 C3.67428073,44.1584935 6.93489212,46.9431139 10.78,47 L10.78,48.8 C6.12179954,48.8000252 2.1100539,45.5146273 1.19183466,40.9478226 C0.27361542,36.3810179 2.70378649,31.8003836 7,30 C8.11232172,23.8477047 13.1847569,19.1884682 19.4091962,18.6016524 C25.6336354,18.0148366 31.4874674,21.6439873 33.73,27.48 C38.7999251,27.6700703 43.0087778,31.4580376 43.73,36.48 C45.7772139,37.6569108 47.0280644,39.8487681 47,42.21 C46.9964925,45.1396306 45.1689918,47.7571862 42.42,48.77 L42.24,48.81 Z" id="Shape" fill="#28245E"></path>
                            <path d="M11.6,32.55 L11.6,32.48 C11.5999985,30.0647963 12.5601184,27.748659 14.2688629,26.0417902 C15.9776073,24.3349214 18.2947978,23.3773459 20.71,23.38 L20.71,25.18 C16.6822065,25.168931 13.4065374,28.4222252 13.39,32.45 L13.39,32.45 L11.6,32.55 Z" id="Shape" fill="#28245E"></path>
                            <path d="M7.63,39 L5.83,39 C5.85076577,36.4941119 7.72335564,34.3906548 10.21,34.08 L10.42,35.87 C8.82982939,36.0529323 7.62967528,37.3993418 7.63,39 L7.63,39 Z" id="Shape" fill="#28245E"></path>
                        </g>
                    </g>
                </g>
            </g>
        </g>
    </g>
</svg>