<?xml version="1.0" encoding="UTF-8"?>
<!DOCTYPE svg PUBLIC "-//W3C//DTD SVG 1.1//EN" "http://www.w3.org/Graphics/SVG/1.1/DTD/svg11.dtd">
<!-- Creator: CorelDRAW 2020 (64-Bit) -->
<svg xmlns="http://www.w3.org/2000/svg" xml:space="preserve" width="279.4mm" height="215.9mm" version="1.1" style="shape-rendering:geometricPrecision; text-rendering:geometricPrecision; image-rendering:optimizeQuality; fill-rule:evenodd; clip-rule:evenodd"
viewBox="0 0 27940 21590"
 xmlns:xlink="http://www.w3.org/1999/xlink"
 xmlns:xodm="http://www.corel.com/coreldraw/odm/2003">
 <defs>
  <style type="text/css">
   <![CDATA[
    .str1 {stroke:#642A73;stroke-width:26.46;stroke-miterlimit:22.9256}
    .str2 {stroke:#642A73;stroke-width:26.46;stroke-linejoin:round;stroke-miterlimit:22.9256}
    .str0 {stroke:#642A73;stroke-width:39.69;stroke-linecap:round;stroke-linejoin:round;stroke-miterlimit:22.9256}
    .fil2 {fill:none;fill-rule:nonzero}
    .fil3 {fill:#28245E;fill-rule:nonzero}
    .fil1 {fill:#642A73;fill-rule:nonzero}
    .fil0 {fill:white;fill-rule:nonzero}
   ]]>
  </style>
 </defs>
 <g id="Capa_x0020_1">
  <metadata id="CorelCorpID_0Corel-Layer"/>
  <path id="Shape" class="fil0 str0" d="M17432.95 7391.46l0 -1015.88 -605 -124.2c-29.73,-126.61 -68,-251.06 -114.57,-372.49l452.15 -410.76 -509.56 -878.92 -636.78 200.63c-79.19,-84.49 -163.19,-164.16 -251.65,-238.78l197.5 -614.63 -882.05 -509.45 -445.78 496.69c-109.64,-35.26 -221.33,-64.02 -334.34,-85.93l-136.96 -636.89 -1003 0 -133.83 636.89c-120.35,24.43 -239.5,55.24 -356.6,92.31l-417.14 -461.66 -882.05 509.44 184.74 573.23c-101.93,89.18 -200.62,184.62 -293.05,283.31l-541.34 -175.11 -506.19 878.92 401.12 366.1c-53.91,145.15 -96.52,294.14 -127.33,445.9l-499.93 105.07 0 1018.89 474.42 101.94c29.36,169.69 71.97,336.86 127.45,499.93l-337.58 302.57 509.44 882.05 420.39 -143.34c119.99,139.73 251.05,269.58 391.62,388.49l-130.58 401.25 882.05 506.2 286.67 -318.33c175.96,61.62 357.08,107.47 541.34,136.84l89.06 407.62 1015.88 0 92.31 -439.4c175.71,-38.51 348.17,-90.74 515.82,-156.09l296.19 318.45 882.05 -509.45 -152.85 -474.42c114.09,-112.65 220.48,-232.88 318.45,-359.85l474.42 152.85 506.32 -882.05 -414.01 -372.61c41.64,-139.85 73.54,-282.46 95.56,-426.64l557.22 -98.69zm-2053.78 -366.23c0,942.59 -764.23,1706.7 -1706.82,1706.7 -942.58,0 -1706.81,-764.11 -1706.81,-1706.7 0,-942.71 764.23,-1706.81 1706.81,-1706.81 942.59,0 1706.82,764.1 1706.82,1706.81z"/>
  <path class="fil0" d="M6501.38 758.57l5136.2 0c202.31,0 366.35,164.04 366.35,366.23l-0.12 10823.26c0.12,202.07 -163.92,366.11 -366.11,366.11l-5136.32 0.12c-202.07,-0.12 -366.11,-164.16 -366.11,-366.35l-0.12 -10823.27c0.12,-202.06 164.16,-366.1 366.35,-366.1z"/>
  <path id="Shape_0" class="fil1" d="M11637.58 12553.06l-5136.2 0c-334.22,0 -605.01,-270.79 -605.01,-605l0 -10823.26c0,-160.55 63.67,-314.36 177.16,-427.85 113.49,-113.49 267.3,-177.28 427.85,-177.28l5136.2 0c162.36,-2.53 319.05,60.06 435.07,173.67 116.14,113.61 181.85,268.98 182.69,431.46l0 10826.51c-1.68,161.87 -67.87,316.4 -183.77,429.29 -115.9,113.01 -272.11,175.11 -433.99,172.46l0 0zm-5136.2 -11555.72c-70.41,0 -127.46,57.05 -127.46,127.46l0 10826.51c0,70.28 57.05,127.33 127.46,127.33l5136.2 0c70.41,0 127.34,-57.05 127.34,-127.33l0 -10826.51c0,-70.41 -56.93,-127.46 -127.34,-127.46l-5136.2 0z"/>
  <path class="fil2 str1" d="M7138.15 2318.79l3862.54 0c204.11,0.25 369.47,165.61 369.47,369.6l0 7607.01c0,204.12 -165.36,369.48 -369.35,369.48l-3862.66 0c-203.87,0 -369.24,-165.36 -369.24,-369.36l-0.12 -7607.25c0.12,-203.87 165.49,-369.23 369.48,-369.23z"/>
  <rect id="Rectangle-path" class="fil1" x="8090.37" y="1338.12" width="1961.48" height="477.67"/>
  <rect id="Rectangle-path_1" class="fil3" x="8832.27" y="11120.23" width="477.67" height="477.67"/>
  <rect id="Rectangle-path_2" class="fil3" x="16028.64" y="10075.76" width="477.67" height="1904.19"/>
  <path id="Shape_3" class="fil1" d="M11892.37 2315.67l426.64 0 0 480.8 -426.64 0 0 -480.8zm853.28 0l423.52 0 0 480.8 -423.52 0 0 -480.8zm850.28 0l426.64 0 0 480.8 -426.64 0 0 -480.8zm853.41 0l423.51 0 0 480.8 -423.51 0 0 -480.8z"/>
  <rect id="Rectangle-path_4" class="fil1" x="15299.44" y="2315.61" width="477.67" height="477.67"/>
  <rect id="Rectangle-path_5" class="fil1" x="15299.44" y="1465.45" width="477.67" height="426.64"/>
  <rect id="Rectangle-path_6" class="fil1" x="15299.44" y="561.13" width="477.67" height="477.67"/>
  <path id="Shape_7" class="fil1" d="M11892.37 561.07l426.64 0 0 477.67 -426.64 0 0 -477.67zm853.28 0l423.52 0 0 477.67 -423.52 0 0 -477.67zm850.28 0l426.64 0 0 477.67 -426.64 0 0 -477.67zm853.41 0l423.51 0 0 477.67 -423.51 0 0 -477.67z"/>
  <path class="fil0" d="M8351.41 3780.45l1439.27 0c263.93,0 477.79,213.87 477.79,477.68l-0.12 1439.27c0.12,263.93 -213.74,477.79 -477.55,477.79l-1439.39 -0.24c-263.69,0.24 -477.55,-213.62 -477.55,-477.43l-0.13 -1439.51c0.13,-263.69 213.99,-477.56 477.8,-477.56z"/>
  <polygon id="Shape_8" class="fil0" points="9071.1,5732.42 9373.55,6254.63 9672.86,6776.83 9071.1,6776.83 8469.23,6776.83 8768.54,6254.63 "/>
  <path id="Shape_9" class="fil1" d="M10086.86 7015.6l-2034.77 0 1019.01 -1760.85 1015.76 1760.85zm-1203.62 -480.8l375.73 0 -187.87 -318.45 -187.86 318.45z"/>
  <rect id="Rectangle-path_10" class="fil1" x="8902.31" y="6850.06" width="477.67" height="703.69"/>
  <path class="fil0" d="M16585.93 9945.18l6696.55 0c219.64,0.12 397.88,178.36 397.88,398.12l0.12 9759.72c-0.12,219.64 -178.36,397.88 -398.12,397.88l-6696.43 0.12c-219.89,-0.12 -398.13,-178.36 -398.13,-398.12l0.13 -9759.72c-0.13,-219.64 178.11,-397.88 397.87,-397.88z"/>
  <path id="Shape_11" class="fil1" d="M23279.35 20899.14l-6687.05 0c-444.93,0 -805.62,-360.69 -805.62,-805.62l0 -9750.34c0,-444.94 360.69,-805.63 805.62,-805.63l6687.05 0c444.94,0 805.63,360.69 805.63,805.63l0 9756.72c-3.49,442.4 -363.22,799.24 -805.63,799.24zm120.95 -10826.63l-6976.73 0 0 10272.54 6967.23 0 9.5 -10272.54z"/>
  <path class="fil2 str2" d="M17649.46 10986.46l4563.1 0c267.18,-0.12 483.93,216.63 483.93,483.93l0.12 7429.01c-0.12,267.18 -216.87,483.93 -484.17,483.93l-4562.98 0.12c-267.41,-0.12 -484.17,-216.87 -484.17,-484.17l0.24 -7428.77c-0.24,-267.42 216.52,-484.17 483.81,-484.17z"/>
  <path class="fil0" d="M21836.83 12642.24l3512.31 0c138.77,-0.12 251.42,112.53 251.42,251.41l0.12 7403.62c-0.12,138.77 -112.77,251.41 -251.66,251.41l-3512.19 0.12c-139.01,-0.12 -251.66,-112.76 -251.66,-251.65l0.13 -7403.38c-0.13,-139 112.52,-251.65 251.41,-251.65z"/>
  <path id="Shape_12" class="fil1" d="M25352.27 20956.43l-3502.68 0c-177.76,6.02 -350.47,-60.41 -478.28,-184.01 -127.93,-123.72 -200.14,-294.02 -200.02,-471.9l0 -7406.63c0,-362.85 293.17,-657.47 656.03,-659.16l3502.69 0c364.06,0 659.16,295.1 659.16,659.16l0 7406.63c-1.56,354.19 -282.82,643.88 -636.9,655.91zm-3693.8 -636.89l3872.16 0 0 -7448.03 -3872.16 0 0 7448.03z"/>
  <rect id="Rectangle-path_13" class="fil1" x="21527.95" y="18994.96" width="4314.69" height="503.07"/>
  <path id="Shape_14" class="fil1" d="M22795.3 15288.39c-70.88,1.81 -127.45,59.7 -127.33,130.58l0 0 0 544.47 0 0c-8.06,50.91 14.56,101.82 57.89,129.86 43.21,28.04 98.93,28.04 142.13,0 43.21,-28.04 65.84,-78.95 57.89,-129.86l0 0 0 -544.47 0 0c0,-72.09 -58.49,-130.58 -130.58,-130.58l0 0z"/>
  <path id="Shape_15" class="fil1" d="M24451.09 15418.97c-1.69,-71.36 -59.09,-128.89 -130.46,-130.58 -72.21,0 -130.58,58.49 -130.58,130.58l0 0 0 544.47 0 0c0,72.09 58.37,130.58 130.58,130.58 71.37,-1.68 128.77,-59.09 130.46,-130.58l0 0 0 -544.47z"/>
  <path id="Shape_16" class="fil1" d="M22980.04 15313.91l0 0 0 853.4c0,70.29 56.93,127.34 127.33,127.34l108.2 0 0 299.31 0 0c1.68,71.37 59.21,128.89 130.58,130.58 72.09,0 130.58,-58.49 130.58,-130.58l0 0 0 -299.31 175.11 0 0 299.31c0,46.69 24.91,89.78 65.35,113.13 40.32,23.23 90.14,23.23 130.46,0 40.44,-23.35 65.35,-66.44 65.35,-113.13l0 -299.31 108.19 0c70.89,0 128.9,-56.57 130.58,-127.34l0 -853.4 -1171.73 0z"/>
  <path id="Shape_17" class="fil1" d="M24142.27 15266.13l0 -60.54c1.56,-17.93 1.56,-36.1 0,-54.16 -37.07,-154.17 -140.93,-283.78 -283.43,-353.35l89.18 -165.6c6.98,-8.3 6.98,-20.46 0,-28.64 -3.61,-4.21 -8.9,-6.5 -14.32,-6.5 -5.54,0 -10.71,2.29 -14.32,6.5l-89.18 165.48c-80.76,-33.58 -167.29,-50.91 -254.78,-50.91 -88.46,0.36 -175.96,17.57 -257.92,50.91l-89.18 -165.48c-3.61,-4.21 -8.78,-6.5 -14.32,-6.5 -5.41,0 -10.71,2.29 -14.32,6.5 -5.9,8.54 -5.9,19.98 0,28.64l92.31 165.6c-133.47,62.59 -234.93,178 -280.18,318.33 -4.81,39.12 -4.81,78.71 0,117.83l0 16 1130.46 15.89zm-318.45 -318.45c14.92,-0.84 29.49,4.45 40.32,14.68 10.95,10.23 17.09,24.55 16.97,39.48 -1.69,30.45 -26.84,54.16 -57.29,54.16 -29.25,-1.57 -52.59,-24.92 -54.16,-54.16 1.69,-28.65 25.52,-51.03 54.16,-50.91l0 -3.25zm-531.83 0c14.44,0 28.16,5.78 38.39,15.89 10.11,10.11 15.77,23.95 15.77,38.27 -1.57,29.24 -24.92,52.59 -54.16,54.16 -29.85,0 -54.04,-24.31 -54.04,-54.16 -0.12,-14.08 5.78,-27.56 16.01,-37.19 10.23,-9.63 24.07,-14.68 38.03,-13.72l0 -3.25z"/>
  <path id="Shape_18" class="fil1" d="M20040.95 14874.51c1.69,-130.34 70.17,-250.57 181.49,-318.45 -74.25,-102.3 -192.2,-163.56 -318.44,-165.6 -127.46,0 -251.54,76.42 -318.45,76.42 -66.92,0 -168.73,-73.29 -277.05,-73.29 -143.46,5.17 -273.92,84.84 -343.84,210.25 -113.13,280.54 -73.42,599.59 105.06,843.78 70.05,101.93 152.85,213.38 264.29,210.13 111.45,-3.13 146.47,-66.8 273.8,-66.8 127.45,0 165.6,66.8 277.05,63.67 111.44,-3.25 184.74,-101.94 254.78,-203.75 50.43,-73.18 89.06,-153.81 114.58,-238.9 -132.15,-59.81 -216.03,-192.44 -213.27,-337.46z"/>
  <path id="Shape_19" class="fil1" d="M19830.7 14253.5c62.22,-74.62 93.03,-170.54 86.05,-267.42 -95.07,9.39 -182.81,55 -245.27,127.33 -63.67,70.16 -95.8,163.44 -89.06,257.91 96.28,0.36 187.62,-42.96 248.28,-117.82l0 0z"/>
  <rect id="Rectangle-path_20" class="fil0" x="1989.25" y="11244.31" width="11890.05" height="9384.11"/>
  <path id="Shape_21" class="fil1" d="M14118.13 20946.92l-12370.97 0 0 -10008.24 12370.97 0 0 10008.24zm-11886.92 -484.05l11406.12 0 0 -9040.14 -11406.12 0 0 9040.14z"/>
  <rect id="Rectangle-path_22" class="fil0" x="1989.25" y="9792.34" width="11890.05" height="1388.37"/>
  <path id="Shape_23" class="fil1" d="M14118.13 11422.73l-12370.97 0 0 -1872.42 12370.97 0 0 1872.42zm-11886.92 -484.05l11406.12 0 0 -904.32 -11406.12 0 0 904.32z"/>
  <g>
   <path id="Shape_24" class="fil0" d="M2530.52 10477.01l452.16 0 -452.16 0zm0 0l0 0 0 0z"/>
  </g>
  <rect id="Rectangle-path_25" class="fil1" x="2530.58" y="10234.99" width="452.16" height="484.05"/>
  <g>
   <path id="Shape_26" class="fil0" d="M3313.89 10477.01l449.02 0 -449.02 0zm0 0l0 0 0 0z"/>
  </g>
  <rect id="Rectangle-path_27" class="fil1" x="3313.83" y="10234.99" width="452.16" height="484.05"/>
  <g>
   <path id="Shape_28" class="fil0" d="M4094 10477.01l452.16 0 -452.16 0zm0 0l0 0 0 0z"/>
  </g>
  <rect id="Rectangle-path_29" class="fil1" x="4094.06" y="10234.99" width="452.16" height="484.05"/>
  <rect id="Rectangle-path_30" class="fil1" x="4189.5" y="11935.3" width="1104.94" height="484.05"/>
  <rect id="Rectangle-path_31" class="fil1" x="6733.83" y="11935.3" width="2260.79" height="484.05"/>
  <rect id="Rectangle-path_32" class="fil1" x="5612.89" y="11935.3" width="519.07" height="484.05"/>
  <rect id="Rectangle-path_33" class="fil1" x="4555.72" y="14072.01" width="1273.67" height="484.05"/>
  <rect id="Rectangle-path_34" class="fil1" x="7271.98" y="14072.01" width="1725.83" height="484.05"/>
  <rect id="Rectangle-path_35" class="fil1" x="6135.21" y="14072.01" width="773.73" height="484.05"/>
  <rect id="Rectangle-path_36" class="fil1" x="9064.73" y="16205.47" width="3365.73" height="484.05"/>
  <rect id="Rectangle-path_37" class="fil1" x="6135.21" y="16205.47" width="2509.19" height="484.05"/>
  <rect id="Rectangle-path_38" class="fil1" x="10761.91" y="14072.01" width="1974.23" height="484.05"/>
  <rect id="Rectangle-path_39" class="fil1" x="9481.86" y="14072.01" width="920.2" height="484.05"/>
  <rect id="Rectangle-path_40" class="fil1" x="5160.73" y="15138.68" width="671.92" height="484.05"/>
  <rect id="Rectangle-path_41" class="fil1" x="6135.15" y="15138.68" width="2560.1" height="484.05"/>
  <rect id="Rectangle-path_42" class="fil1" x="10589.99" y="11935.3" width="2260.79" height="484.05"/>
  <rect id="Rectangle-path_43" class="fil1" x="9465.91" y="11935.3" width="519.07" height="484.05"/>
  <rect id="Rectangle-path_44" class="fil1" x="4189.56" y="13005.22" width="4458.03" height="484.05"/>
  <rect id="Rectangle-path_45" class="fil1" x="4189.5" y="17288.14" width="6132.95" height="484.05"/>
  <rect id="Rectangle-path_46" class="fil1" x="4189.5" y="18354.81" width="7104.18" height="484.05"/>
  <rect id="Rectangle-path_47" class="fil1" x="4189.56" y="19421.6" width="3082.42" height="484.05"/>
  <rect id="Rectangle-path_48" class="fil1" x="2887.12" y="11935.3" width="458.54" height="484.05"/>
  <rect id="Rectangle-path_49" class="fil1" x="2887.12" y="13005.22" width="458.54" height="484.05"/>
  <rect id="Rectangle-path_50" class="fil1" x="2887.12" y="14072.01" width="458.54" height="484.05"/>
  <rect id="Rectangle-path_51" class="fil1" x="2887.12" y="15138.68" width="458.54" height="484.05"/>
  <rect id="Rectangle-path_52" class="fil1" x="2887.12" y="16205.47" width="458.54" height="484.05"/>
  <rect id="Rectangle-path_53" class="fil1" x="2887.12" y="17272.25" width="458.54" height="484.05"/>
  <rect id="Rectangle-path_54" class="fil1" x="2887.12" y="18338.92" width="458.54" height="484.05"/>
  <rect id="Rectangle-path_55" class="fil1" x="2887.12" y="19405.71" width="458.54" height="484.05"/>
 </g>
</svg>
